<svg xmlns="http://www.w3.org/2000/svg" xmlns:xlink="http://www.w3.org/1999/xlink" width="377" zoomAndPan="magnify" viewBox="0 0 283.5 283.500005" height="377" preserveAspectRatio="xMidYMid meet" version="1.0"><defs><clipPath id="d90397a5e5"><path d="M 0 0 L 283 0 L 283 283 L 0 283 Z M 0 0 " clip-rule="nonzero"/></clipPath><clipPath id="4d3ba2cdf0"><path d="M 11 165 L 203 165 L 203 267 L 11 267 Z M 11 165 " clip-rule="nonzero"/></clipPath><clipPath id="eb1cdd656d"><path d="M 196.367188 268.769531 L 6.835938 178.339844 L 15.554688 160.0625 L 205.085938 250.492188 Z M 196.367188 268.769531 " clip-rule="nonzero"/></clipPath><clipPath id="334bbc0d8e"><path d="M 196.367188 268.769531 L 6.835938 178.339844 L 15.554688 160.0625 L 205.085938 250.492188 Z M 196.367188 268.769531 " clip-rule="nonzero"/></clipPath><clipPath id="18e4e80c4c"><path d="M 38 25 L 236.492188 25 L 236.492188 233.839844 L 38 233.839844 Z M 38 25 " clip-rule="nonzero"/></clipPath></defs><g clip-path="url(#d90397a5e5)"><path fill="#ffffff" d="M 0 0 L 283.5 0 L 283.5 291 L 0 291 Z M 0 0 " fill-opacity="1" fill-rule="nonzero"/><path fill="#ffffff" d="M 0 0 L 283.5 0 L 283.5 283.5 L 0 283.5 Z M 0 0 " fill-opacity="1" fill-rule="nonzero"/><path fill="#0084ff" d="M 0 0 L 283.5 0 L 283.5 283.5 L 0 283.5 Z M 0 0 " fill-opacity="1" fill-rule="nonzero"/></g><g clip-path="url(#4d3ba2cdf0)"><g clip-path="url(#eb1cdd656d)"><g clip-path="url(#334bbc0d8e)"><path fill="#ffffff" d="M 11.183594 169.816406 C 11.046875 170.835938 11.683594 171.6875 12.398438 172.351562 C 12.625 172.558594 12.839844 172.777344 13.046875 172.996094 C 14.085938 174.203125 14.828125 175.636719 15.6875 176.964844 C 15.816406 177.167969 15.945312 177.378906 16.0625 177.589844 C 16.085938 177.628906 16.105469 177.667969 16.128906 177.710938 C 16.179688 177.8125 16.234375 177.917969 16.277344 178.023438 C 16.5 178.5 16.699219 178.992188 16.878906 179.484375 C 17.234375 180.460938 17.546875 181.421875 18.125 182.304688 C 19.382812 184.21875 21.546875 185.355469 23.839844 185.226562 C 24.839844 185.167969 25.878906 184.851562 26.691406 184.28125 C 27.601562 183.644531 28.179688 182.746094 28.445312 181.679688 C 28.671875 180.789062 28.574219 179.796875 28.308594 178.902344 C 28.949219 179.210938 29.589844 179.515625 30.230469 179.820312 C 30.464844 179.933594 30.699219 180.046875 30.933594 180.15625 C 31.132812 180.761719 31.574219 181.285156 32.050781 181.730469 C 32.277344 181.9375 32.492188 182.152344 32.699219 182.371094 C 33.738281 183.578125 34.480469 185.011719 35.339844 186.34375 C 35.46875 186.546875 35.597656 186.753906 35.714844 186.96875 C 35.738281 187.003906 35.757812 187.042969 35.78125 187.085938 C 35.832031 187.191406 35.886719 187.296875 35.929688 187.402344 C 36.152344 187.878906 36.351562 188.367188 36.53125 188.859375 C 36.886719 189.839844 37.199219 190.796875 37.777344 191.679688 C 39.035156 193.59375 41.195312 194.730469 43.492188 194.601562 C 44.492188 194.546875 45.53125 194.230469 46.34375 193.65625 C 47.253906 193.019531 47.832031 192.121094 48.097656 191.058594 C 48.324219 190.167969 48.226562 189.175781 47.960938 188.28125 C 48.855469 188.707031 49.75 189.132812 50.640625 189.558594 C 50.652344 189.566406 50.667969 189.570312 50.679688 189.578125 C 50.878906 190.183594 51.320312 190.707031 51.796875 191.152344 C 52.023438 191.359375 52.238281 191.574219 52.445312 191.792969 C 53.484375 193 54.226562 194.433594 55.085938 195.765625 C 55.214844 195.96875 55.34375 196.175781 55.464844 196.390625 C 55.484375 196.425781 55.503906 196.464844 55.527344 196.507812 C 55.578125 196.613281 55.632812 196.71875 55.679688 196.824219 C 55.898438 197.300781 56.097656 197.789062 56.277344 198.28125 C 56.632812 199.261719 56.945312 200.21875 57.523438 201.101562 C 58.78125 203.015625 60.945312 204.152344 63.242188 204.023438 C 64.238281 203.96875 65.277344 203.652344 66.089844 203.078125 C 67.003906 202.441406 67.578125 201.542969 67.847656 200.480469 C 68.070312 199.585938 67.976562 198.597656 67.707031 197.703125 C 75.59375 201.464844 170.964844 246.96875 172.769531 247.832031 C 172.769531 247.835938 172.773438 247.84375 172.773438 247.851562 C 173.523438 250.851562 174.261719 253.847656 175 256.84375 C 175.089844 257.203125 175.484375 257.570312 175.804688 257.722656 C 176.148438 257.886719 176.636719 257.933594 176.992188 257.792969 C 177.363281 257.648438 177.710938 257.386719 177.871094 257.011719 C 178.039062 256.613281 178.027344 256.253906 177.925781 255.835938 C 177.40625 253.742188 176.886719 251.648438 176.371094 249.550781 C 178.238281 250.441406 180.105469 251.332031 181.972656 252.226562 C 181.972656 252.234375 181.976562 252.238281 181.976562 252.246094 C 182.722656 255.242188 183.460938 258.234375 184.203125 261.234375 C 184.289062 261.59375 184.683594 261.960938 185.003906 262.113281 C 185.351562 262.277344 185.835938 262.324219 186.191406 262.183594 C 186.5625 262.035156 186.910156 261.777344 187.070312 261.402344 C 187.238281 261.003906 187.226562 260.644531 187.125 260.226562 C 186.605469 258.132812 186.089844 256.039062 185.570312 253.941406 C 187.171875 254.707031 188.769531 255.46875 190.371094 256.230469 C 190.371094 256.238281 190.375 256.246094 190.375 256.253906 C 191.117188 259.246094 191.859375 262.242188 192.597656 265.238281 C 192.683594 265.597656 193.078125 265.964844 193.398438 266.117188 C 193.746094 266.285156 194.230469 266.328125 194.589844 266.1875 C 194.960938 266.042969 195.308594 265.78125 195.46875 265.40625 C 195.632812 265.007812 195.625 264.648438 195.519531 264.234375 C 195 262.136719 194.484375 260.042969 193.964844 257.949219 C 194.214844 258.066406 194.460938 258.183594 194.707031 258.300781 C 195.910156 258.875 197.113281 259.449219 198.3125 260.023438 C 200.128906 260.886719 201.449219 258.121094 199.632812 257.257812 C 198.316406 256.628906 197.003906 256.003906 195.6875 255.375 C 197.550781 254.503906 199.410156 253.632812 201.273438 252.761719 C 201.65625 252.582031 201.964844 252.375 202.152344 251.980469 C 202.3125 251.640625 202.351562 251.160156 202.207031 250.808594 C 201.914062 250.097656 200.992188 249.492188 200.214844 249.855469 C 197.507812 251.125 194.796875 252.394531 192.089844 253.664062 C 190.347656 252.832031 188.609375 252 186.867188 251.167969 C 188.726562 250.300781 190.589844 249.425781 192.449219 248.554688 C 192.832031 248.378906 193.140625 248.167969 193.328125 247.777344 C 193.492188 247.433594 193.53125 246.957031 193.382812 246.601562 C 193.089844 245.894531 192.171875 245.285156 191.394531 245.652344 C 188.6875 246.917969 185.976562 248.191406 183.269531 249.457031 C 181.480469 248.605469 179.695312 247.75 177.90625 246.898438 C 179.765625 246.027344 181.628906 245.15625 183.492188 244.285156 C 183.875 244.105469 184.183594 243.898438 184.371094 243.503906 C 184.53125 243.164062 184.570312 242.683594 184.421875 242.332031 C 184.132812 241.621094 183.210938 241.015625 182.433594 241.378906 C 179.726562 242.648438 177.015625 243.917969 174.308594 245.1875 C 173.523438 244.8125 68.429688 194.667969 68.332031 194.621094 C 68.988281 194.386719 69.613281 194.058594 70.136719 193.617188 C 70.992188 192.894531 71.605469 191.964844 71.785156 190.839844 C 71.964844 189.714844 71.707031 188.609375 71.140625 187.617188 C 70.5625 186.605469 69.527344 185.816406 68.464844 185.347656 C 67.316406 184.839844 66.058594 184.609375 64.808594 184.644531 C 63.6875 184.679688 62.601562 185.003906 61.519531 185.273438 C 61.410156 185.300781 61.300781 185.324219 61.191406 185.351562 C 61.175781 185.355469 61.136719 185.363281 61.097656 185.371094 C 60.789062 185.433594 60.480469 185.492188 60.175781 185.566406 C 59.820312 185.652344 59.472656 185.753906 59.128906 185.871094 C 58.425781 186.109375 57.734375 186.390625 57.015625 186.585938 C 56.921875 186.609375 56.828125 186.632812 56.734375 186.65625 C 56.726562 186.65625 56.726562 186.65625 56.71875 186.65625 C 56.515625 186.695312 56.316406 186.726562 56.109375 186.746094 C 55.695312 186.789062 55.28125 186.800781 54.863281 186.785156 C 54.519531 186.761719 54.175781 186.722656 53.832031 186.675781 C 53.621094 186.648438 53.414062 186.628906 53.199219 186.652344 C 52.84375 186.691406 52.46875 186.761719 52.132812 186.890625 C 50.949219 186.328125 49.761719 185.761719 48.578125 185.195312 C 49.234375 184.960938 49.859375 184.632812 50.386719 184.195312 C 51.242188 183.46875 51.855469 182.539062 52.03125 181.414062 C 52.214844 180.289062 51.953125 179.1875 51.386719 178.195312 C 50.808594 177.179688 49.773438 176.390625 48.710938 175.921875 C 47.5625 175.417969 46.304688 175.183594 45.058594 175.21875 C 43.933594 175.253906 42.847656 175.582031 41.765625 175.847656 C 41.65625 175.875 41.546875 175.898438 41.4375 175.925781 C 41.421875 175.929688 41.386719 175.9375 41.347656 175.945312 C 41.035156 176.007812 40.730469 176.066406 40.421875 176.140625 C 40.070312 176.226562 39.722656 176.328125 39.375 176.445312 C 38.671875 176.683594 37.980469 176.964844 37.261719 177.160156 C 37.167969 177.183594 37.074219 177.207031 36.980469 177.230469 C 36.976562 177.234375 36.972656 177.230469 36.96875 177.234375 C 36.765625 177.269531 36.5625 177.300781 36.355469 177.320312 C 35.941406 177.363281 35.527344 177.375 35.113281 177.363281 C 34.765625 177.335938 34.421875 177.300781 34.078125 177.253906 C 33.867188 177.222656 33.660156 177.203125 33.449219 177.230469 C 33.089844 177.265625 32.714844 177.335938 32.378906 177.464844 C 31.226562 176.917969 30.070312 176.367188 28.917969 175.816406 C 29.574219 175.582031 30.203125 175.253906 30.726562 174.8125 C 31.582031 174.089844 32.195312 173.160156 32.375 172.035156 C 32.554688 170.910156 32.296875 169.804688 31.730469 168.816406 C 31.148438 167.800781 30.117188 167.011719 29.050781 166.542969 C 27.90625 166.035156 26.648438 165.804688 25.398438 165.839844 C 24.277344 165.875 23.1875 166.203125 22.105469 166.46875 C 21.996094 166.496094 21.886719 166.519531 21.777344 166.546875 C 21.765625 166.550781 21.726562 166.558594 21.6875 166.566406 C 21.375 166.628906 21.070312 166.6875 20.765625 166.761719 C 20.410156 166.847656 20.0625 166.949219 19.71875 167.066406 C 19.011719 167.304688 18.320312 167.585938 17.601562 167.78125 C 17.507812 167.804688 17.417969 167.828125 17.320312 167.851562 C 17.316406 167.855469 17.3125 167.851562 17.308594 167.855469 C 17.105469 167.890625 16.90625 167.921875 16.699219 167.941406 C 16.285156 167.984375 15.867188 167.996094 15.453125 167.980469 C 15.105469 167.957031 14.765625 167.917969 14.417969 167.871094 C 14.210938 167.84375 14 167.824219 13.789062 167.847656 C 13.394531 167.890625 12.988281 167.96875 12.621094 168.125 C 11.894531 168.429688 11.296875 168.992188 11.183594 169.816406 Z M 11.183594 169.816406 " fill-opacity="1" fill-rule="nonzero"/></g></g></g><g clip-path="url(#18e4e80c4c)"><path fill="#ffffff" d="M 38.90625 156.160156 C 39.195312 155.410156 39.457031 154.652344 39.789062 153.921875 C 39.96875 153.53125 40.164062 153.148438 40.394531 152.785156 C 40.601562 152.457031 40.527344 152.265625 40.707031 151.980469 C 40.886719 151.703125 41.007812 151.804688 41.238281 151.441406 C 41.464844 151.085938 41.710938 150.738281 41.96875 150.398438 C 42.21875 150.066406 42.480469 149.734375 42.742188 149.40625 C 43.015625 149.066406 43.078125 148.691406 43.332031 148.371094 C 43.980469 147.554688 44.769531 146.757812 44.738281 145.664062 C 44.695312 144.191406 44.917969 142.871094 45.207031 141.355469 C 45.863281 137.910156 47.027344 134.566406 48.765625 131.515625 C 49.507812 130.207031 50.34375 128.832031 51.378906 127.820312 C 51.828125 127.378906 52.105469 126.828125 52.570312 126.378906 C 52.832031 126.121094 53.105469 126.007812 53.371094 125.738281 C 53.691406 125.414062 53.878906 124.933594 54.304688 124.71875 C 54.953125 124.394531 55.53125 124.015625 55.976562 123.429688 C 56.207031 123.125 57.050781 122.523438 57.433594 122.488281 C 57.59375 122.167969 58.375 121.640625 58.714844 121.554688 C 59.128906 121.445312 59.734375 121.019531 60.179688 120.78125 C 61.097656 120.285156 62.085938 119.75 63.125 119.523438 C 64.347656 119.257812 65.496094 118.714844 66.769531 118.699219 C 66.859375 118.511719 67.828125 118.421875 68.007812 118.421875 C 68.445312 118.421875 68.984375 118.300781 69.363281 118.300781 C 70.433594 118.300781 71.261719 118.007812 72.429688 117.953125 C 73.308594 117.910156 74.496094 117.964844 75.132812 118.082031 C 76.671875 118.59375 78.308594 119.054688 79.914062 119.507812 C 81.730469 120.015625 83.699219 120.390625 85.382812 121.261719 C 85.761719 121.457031 86.007812 121.578125 86.265625 121.878906 C 86.910156 122.085938 87.125 122.695312 87.71875 122.921875 C 87.941406 122.707031 90.878906 125.226562 90.808594 125.617188 C 90.777344 125.789062 91.433594 126.261719 91.550781 126.429688 C 91.851562 126.851562 92.355469 127.175781 92.597656 127.589844 C 92.832031 127.992188 93.09375 128.066406 93.339844 128.457031 C 93.519531 128.742188 93.941406 129.0625 94.054688 129.328125 C 94.5 130.351562 95.503906 131.351562 96.15625 132.320312 C 96.496094 132.824219 96.835938 133.328125 97.199219 133.816406 C 97.832031 134.671875 97.746094 133.519531 98.308594 133.296875 C 98.222656 132.910156 98.65625 132.652344 98.789062 132.320312 C 99.003906 131.777344 99.359375 131.289062 99.757812 130.867188 C 100.308594 130.277344 99.816406 129.128906 99.820312 128.339844 C 99.605469 128.300781 99.550781 127.113281 99.539062 126.96875 C 99.453125 125.949219 99.570312 125.078125 99.769531 124.265625 C 99.980469 123.417969 100.320312 122.566406 100.53125 121.828125 C 100.84375 120.753906 101.585938 119.605469 101.289062 118.4375 C 101.570312 118.449219 101.460938 118.246094 101.414062 117.988281 C 101.308594 117.398438 101.625 117.332031 101.558594 116.832031 C 101.492188 116.363281 101.621094 116.050781 101.621094 115.59375 C 101.621094 115.074219 101.890625 114.34375 101.980469 113.78125 C 102.214844 112.316406 102.5625 110.894531 102.828125 109.445312 C 103.066406 108.609375 103.417969 107.207031 103.976562 106.253906 C 104.714844 104.996094 105.011719 103.355469 105.488281 101.972656 C 105.894531 100.804688 106.226562 99.53125 106.621094 98.414062 C 107.015625 97.304688 107.453125 96.160156 107.835938 95.023438 C 108.320312 93.578125 108.753906 92.082031 109.320312 90.652344 C 109.6875 89.722656 109.960938 88.617188 110.203125 87.640625 C 110.472656 86.546875 110.828125 85.433594 111.175781 84.367188 C 112.132812 81.421875 113.003906 78.453125 113.988281 75.511719 C 114.425781 74.214844 114.765625 72.84375 115.324219 71.589844 C 115.398438 71.425781 115.558594 70.460938 115.847656 70.460938 C 116.300781 70.460938 116.082031 71.425781 115.957031 71.582031 C 115.605469 72.015625 115.511719 72.953125 115.367188 73.519531 C 115.171875 74.273438 114.988281 75.035156 114.808594 75.796875 C 114.625 76.597656 114.46875 78.910156 113.976562 79.332031 C 113.007812 84.109375 111.925781 88.984375 111.429688 93.835938 C 111.398438 93.824219 111.367188 93.808594 111.339844 93.792969 C 111.238281 94.609375 111.148438 95.433594 110.898438 96.222656 C 111.25 96.800781 111.984375 94.488281 112.054688 94.148438 C 112.308594 92.964844 112.757812 91.835938 113.144531 90.695312 C 113.515625 89.597656 113.632812 88.414062 113.9375 87.28125 C 114.292969 85.96875 114.519531 84.695312 114.890625 83.304688 C 115.140625 82.371094 115.382812 81.441406 115.644531 80.496094 C 115.578125 80.011719 115.894531 79.128906 116.34375 78.902344 C 116.351562 79.355469 116.429688 80.484375 116 80.796875 C 115.957031 81.277344 115.726562 82.984375 115.492188 83.105469 C 115.207031 84.921875 114.886719 86.53125 114.582031 88.257812 C 114.46875 88.917969 114.089844 93.265625 113.933594 93.277344 C 113.90625 94.007812 113.929688 94.515625 113.753906 95.226562 C 113.578125 95.953125 113.582031 96.476562 113.480469 97.265625 C 113.371094 98.09375 113.28125 98.847656 113.1875 99.636719 C 113.15625 99.875 112.660156 102.113281 112.886719 102.113281 C 113.234375 102.113281 113.484375 100.902344 113.582031 100.652344 C 113.867188 99.882812 114.300781 99.246094 114.390625 98.363281 C 114.433594 97.953125 114.695312 97.519531 114.792969 97.089844 C 114.917969 96.5625 115.058594 96.042969 115.179688 95.515625 C 115.28125 95.082031 115.296875 93.253906 115.515625 93.191406 C 115.511719 93.007812 115.421875 91.800781 115.550781 91.800781 C 115.671875 91.800781 115.886719 90.515625 115.910156 90.324219 C 115.976562 89.847656 115.816406 87.765625 116.601562 87.894531 C 116.566406 91.433594 115.671875 94.421875 115.800781 97.972656 C 115.8125 98.28125 115.597656 98.496094 115.59375 98.886719 C 115.59375 99.351562 115.621094 99.816406 115.582031 100.28125 C 115.578125 100.753906 115.640625 101.238281 115.597656 101.707031 C 115.476562 103.058594 115.332031 104.484375 115.34375 105.972656 C 116.074219 105.644531 116.121094 104.121094 116.117188 103.421875 C 116.109375 102.429688 116.011719 101.332031 116.121094 100.347656 C 116.183594 99.804688 116.191406 97.230469 116.976562 97.066406 C 117.289062 97.445312 117.109375 98.625 117.109375 99.226562 C 117.109375 100.910156 117.105469 102.589844 117.109375 104.273438 C 117.109375 106.421875 116.867188 108.167969 116.984375 110.289062 C 117.441406 110.273438 117.074219 108.378906 117.28125 107.925781 C 117.652344 107.796875 117.777344 108.171875 117.765625 108.496094 C 117.746094 108.898438 117.8125 109.367188 117.863281 109.792969 C 118.277344 109.996094 117.914062 110.980469 117.949219 111.359375 C 118.03125 112.1875 118.152344 113.003906 118.28125 113.898438 C 118.367188 114.464844 118.644531 115.058594 118.4375 115.617188 C 118.449219 115.742188 118.566406 115.746094 118.621094 115.867188 C 118.765625 116.199219 118.585938 116.621094 118.679688 116.984375 C 118.78125 117.378906 118.816406 117.785156 118.886719 118.1875 C 119.117188 118.292969 119.390625 118.300781 119.582031 118.488281 C 119.886719 118.804688 119.945312 119.996094 120.039062 120.4375 C 120.480469 122.464844 120.863281 124.511719 121.539062 126.480469 C 122.257812 127.691406 122.648438 128.785156 123.105469 130.074219 C 123.570312 131.386719 124.359375 133.054688 124.523438 134.421875 C 125.375 134.109375 125.546875 133.148438 126.203125 132.710938 C 126.921875 132.226562 126.867188 131.613281 127.714844 131.285156 C 127.6875 131.253906 127.648438 131.230469 127.609375 131.179688 C 128.132812 130.164062 129.589844 129.214844 130.425781 128.355469 C 130.742188 128.03125 131.101562 127.914062 131.382812 127.664062 C 131.675781 127.410156 131.875 127.011719 132.199219 126.71875 C 132.332031 126.597656 133.4375 125.410156 133.5625 125.589844 C 134.125 125.164062 134.332031 124.566406 134.882812 124.214844 C 135.347656 123.917969 135.765625 123.40625 136.167969 123.023438 C 136.832031 122.394531 138.078125 121.960938 138.453125 121.097656 C 139.644531 118.355469 139.441406 115.371094 141.3125 112.84375 C 142.390625 111.75 143.417969 110.375 144.320312 109.214844 C 144.796875 108.601562 145.445312 108.148438 145.949219 107.558594 C 146.613281 106.777344 147.164062 105.875 147.714844 105.011719 C 148.703125 103.46875 149.699219 101.941406 150.746094 100.433594 C 151.292969 99.648438 151.851562 98.875 152.410156 98.097656 C 152.601562 97.832031 153.558594 96.179688 153.828125 96.222656 C 153.894531 96.230469 154.667969 94.992188 154.777344 94.847656 C 155.308594 94.148438 155.824219 93.441406 156.359375 92.746094 C 156.925781 92.003906 157.511719 91.273438 158.148438 90.589844 C 158.363281 90.308594 158.636719 89.859375 158.972656 89.558594 C 159.183594 88.554688 160.6875 87.710938 161.34375 86.984375 C 161.953125 86.308594 162.542969 85.617188 163.121094 84.914062 C 163.207031 84.59375 163.464844 84.230469 163.816406 84.167969 C 164.011719 83.945312 163.929688 83.71875 164.1875 83.496094 C 164.964844 82.824219 165.398438 82.027344 166.105469 81.339844 C 166.414062 81.042969 166.824219 80.691406 167.121094 80.351562 C 167.46875 79.949219 167.636719 79.390625 168.191406 79.117188 C 168.5625 78.621094 168.988281 77.929688 169.433594 77.488281 C 169.667969 77.253906 169.890625 77.167969 170.09375 76.910156 C 170.273438 76.679688 170.378906 76.402344 170.597656 76.199219 C 170.785156 76.023438 171.027344 75.960938 171.1875 75.773438 C 171.191406 75.28125 171.726562 74.945312 172.105469 74.75 C 172.296875 74.507812 172.273438 74.28125 172.472656 74.066406 C 172.734375 73.785156 173.054688 73.667969 173.324219 73.382812 C 173.339844 73.027344 174.027344 72.238281 174.34375 72.199219 C 174.335938 71.679688 175.074219 71.359375 175.285156 70.949219 C 175.421875 70.6875 175.671875 70.496094 175.910156 70.34375 C 176.199219 70.160156 176.160156 69.820312 176.46875 69.582031 C 177.191406 69.035156 177.875 68.128906 178.492188 67.425781 C 178.777344 67.097656 179.085938 66.789062 179.355469 66.472656 C 179.3125 66.1875 179.527344 65.972656 179.746094 65.832031 C 180.40625 65.414062 179.917969 65.671875 180.347656 65.089844 C 180.546875 64.816406 180.878906 64.714844 181.113281 64.457031 C 181.09375 64.179688 181.296875 63.953125 181.5 63.792969 C 181.722656 63.617188 182.042969 62.945312 182.34375 62.945312 C 182.910156 62.945312 182.640625 62.019531 183.304688 61.925781 C 183.691406 61.417969 184.058594 61.007812 184.351562 60.480469 C 184.539062 60.148438 184.800781 60.027344 184.992188 59.707031 C 185.1875 59.386719 185.417969 59.285156 185.605469 58.972656 C 185.839844 58.585938 186.414062 58.144531 186.71875 57.796875 C 187.40625 57.023438 188.238281 56.074219 188.738281 55.210938 C 188.988281 54.785156 189.660156 54.226562 190.015625 53.875 C 190.019531 53.484375 190.472656 53.289062 190.707031 53.027344 C 191.125 52.484375 191.671875 51.96875 191.957031 51.382812 C 192.046875 51.191406 192.898438 50.277344 193.070312 50.238281 C 193.046875 49.960938 193.257812 49.738281 193.46875 49.59375 C 193.757812 49.398438 193.675781 49.171875 193.972656 48.960938 C 194.480469 48.59375 194.960938 47.898438 195.222656 47.363281 C 195.417969 46.960938 195.886719 46.597656 196.128906 46.191406 C 196.289062 45.917969 196.480469 45.824219 196.632812 45.554688 C 196.742188 45.382812 196.894531 45.265625 197.085938 45.203125 C 197.109375 44.945312 197.230469 44.738281 197.445312 44.589844 C 197.9375 44.234375 198 43.734375 198.425781 43.367188 C 198.882812 42.964844 199.121094 42.382812 199.53125 42.003906 C 200.289062 41.300781 200.722656 40.511719 201.433594 39.765625 C 201.636719 39.484375 201.964844 39.136719 202.261719 38.789062 C 202.578125 38.421875 202.671875 38.007812 203.121094 37.765625 C 203.320312 37.402344 203.78125 36.710938 204.078125 36.453125 C 205.265625 35.417969 206.15625 33.957031 207.167969 32.738281 C 208.011719 31.71875 208.777344 30.730469 209.585938 29.675781 C 210.101562 29.007812 213.980469 23.839844 214.746094 25.871094 C 214.617188 26.582031 214.566406 27.121094 214.363281 27.855469 C 214.292969 28.113281 213.988281 29.753906 213.789062 29.796875 C 213.632812 29.828125 213.269531 31.585938 213.183594 31.84375 C 212.898438 32.703125 212.578125 33.546875 212.335938 34.417969 C 211.605469 36.546875 210.398438 38.75 209.226562 40.800781 C 208.460938 42.148438 207.328125 43.476562 206.742188 44.894531 C 206.652344 45.121094 206.050781 46.226562 205.8125 46.230469 C 205.402344 47.039062 204.882812 47.796875 204.3125 48.503906 C 202.671875 51.371094 200.648438 54.25 198.625 56.859375 C 197.847656 57.863281 197.011719 58.882812 196.410156 59.96875 C 196.292969 60.183594 196.109375 60.40625 195.847656 60.4375 C 195.8125 60.714844 195.695312 60.972656 195.5 61.171875 C 195.246094 61.425781 195.019531 61.742188 194.898438 62.097656 C 195.097656 62.089844 195.769531 61.246094 195.921875 61.09375 C 196.371094 60.648438 196.824219 60.199219 197.273438 59.75 C 198.164062 58.859375 199.054688 57.96875 199.941406 57.078125 C 201.109375 55.90625 202.40625 54.804688 203.464844 53.609375 C 203.609375 53.164062 204.003906 52.835938 204.363281 52.5625 C 204.644531 52.351562 204.765625 51.960938 205.132812 51.867188 C 205.101562 51.335938 206.074219 50.601562 206.507812 50.367188 C 206.511719 49.964844 206.894531 49.671875 207.199219 49.472656 C 207.53125 49.257812 207.710938 48.875 208.023438 48.605469 C 208.570312 48.132812 208.878906 47.605469 209.484375 47.148438 C 209.488281 47.183594 209.492188 47.222656 209.496094 47.257812 C 209.914062 46.804688 210.03125 46.277344 210.597656 45.875 C 210.605469 45.957031 210.613281 46.039062 210.621094 46.121094 C 211.292969 45.296875 211.675781 44.359375 212.570312 43.675781 C 212.804688 43.492188 212.921875 43.234375 213.175781 42.953125 C 213.398438 42.710938 213.636719 42.445312 213.953125 42.316406 C 214.117188 42.125 214.066406 41.90625 214.25 41.707031 C 214.632812 41.285156 215.089844 40.859375 215.511719 40.464844 C 215.835938 40.164062 216.09375 39.8125 216.324219 39.546875 C 216.734375 39.222656 217.355469 38.722656 217.675781 38.335938 C 218.054688 37.867188 218.355469 37.136719 218.984375 36.914062 C 219.929688 35.742188 220.996094 34.605469 222.347656 33.898438 C 222.570312 33.78125 223.636719 33.207031 223.566406 33.984375 C 223.621094 34.066406 223.898438 34.878906 223.542969 35.074219 C 223.234375 36.332031 222.667969 37.554688 222.191406 38.753906 C 221.53125 40.414062 220.964844 42.128906 220.09375 43.695312 C 219.753906 44.304688 219.648438 44.832031 219.113281 45.359375 C 219.226562 45.8125 218.292969 46.777344 218.046875 47.171875 C 217.140625 48.601562 216.128906 50.027344 215.097656 51.367188 C 214.152344 52.589844 213.082031 53.882812 212.292969 55.167969 C 212.09375 55.5 211.714844 55.757812 211.488281 56.058594 C 211.476562 56.289062 210.714844 57.25 210.484375 57.300781 C 210.425781 57.726562 210.058594 57.90625 209.773438 58.21875 C 209.417969 58.613281 208.953125 59.644531 208.457031 59.84375 C 208.191406 60.414062 207.679688 60.855469 207.292969 61.339844 C 206.917969 61.808594 206.386719 62.410156 205.929688 62.925781 C 205.722656 63.15625 205.441406 63.308594 205.265625 63.558594 C 205.074219 63.832031 205.128906 64.085938 204.828125 64.3125 C 204.5 64.5625 204.242188 65.265625 203.808594 65.335938 C 203.769531 65.746094 203.015625 66.398438 202.652344 66.597656 C 202.53125 66.976562 201.976562 67.558594 201.679688 67.792969 C 201.300781 68.089844 200.960938 68.527344 200.703125 68.929688 C 201.226562 68.851562 201.898438 68.0625 202.304688 67.753906 C 202.917969 67.28125 203.667969 66.847656 204.121094 66.214844 C 204.230469 66.0625 205.023438 65.421875 205.195312 65.421875 C 205.5 65.421875 206.222656 64.449219 206.640625 64.308594 C 206.742188 63.9375 207.445312 63.578125 207.753906 63.332031 C 208.082031 63.066406 208.441406 62.816406 208.753906 62.539062 C 209.019531 62.054688 209.546875 61.863281 209.894531 61.425781 C 210.320312 60.890625 210.90625 60.699219 211.308594 60.136719 C 211.621094 59.703125 212.035156 59.699219 212.332031 59.257812 C 212.523438 58.972656 212.828125 58.71875 213.164062 58.636719 C 213.25 58.421875 213.441406 58.191406 213.679688 58.144531 C 213.824219 57.664062 214.324219 57.460938 214.734375 57.257812 C 215.03125 57.003906 215.222656 56.527344 215.609375 56.269531 C 216.183594 55.890625 216.484375 55.398438 216.992188 54.949219 C 217.449219 54.542969 217.890625 54.359375 218.230469 53.859375 C 218.59375 53.320312 219.226562 53.152344 219.585938 52.621094 C 219.753906 52.367188 220.039062 52.1875 220.316406 52.078125 C 220.5 51.789062 220.910156 51.371094 221.167969 51.140625 C 221.285156 51.035156 221.941406 50.460938 222.101562 50.460938 C 222.257812 50.03125 222.949219 49.535156 223.359375 49.367188 C 223.445312 48.898438 224.234375 48.84375 224.234375 48.570312 C 224.234375 48.203125 225.175781 47.515625 225.5 47.46875 C 226.128906 46.3125 227.492188 45.726562 228.234375 44.734375 C 228.308594 44.636719 228.648438 44.242188 228.800781 44.503906 C 229.09375 44.261719 229.398438 44.035156 229.730469 43.84375 C 229.96875 43.703125 230.457031 43.199219 230.609375 43.144531 C 233.207031 42.203125 230.304688 47.957031 230.019531 48.582031 C 229.476562 49.765625 228.871094 50.957031 228.476562 52.167969 C 228.257812 52.847656 227.828125 53.449219 227.511719 54.078125 C 227.316406 54.46875 226.796875 55.359375 226.4375 55.566406 C 226.128906 56.484375 225.152344 57.5 224.53125 58.246094 C 224.253906 58.574219 224.054688 58.859375 223.84375 59.207031 C 223.734375 59.382812 223.582031 59.5 223.386719 59.558594 C 223.421875 59.847656 223.1875 60.039062 222.984375 60.191406 C 222.316406 60.714844 222.035156 61.804688 221.265625 62.222656 C 221.222656 62.414062 220.824219 62.816406 220.636719 62.867188 C 220.636719 63.210938 220.136719 63.59375 219.914062 63.785156 C 219.453125 64.1875 219.011719 64.726562 218.605469 65.230469 C 218.417969 65.457031 218.171875 65.398438 218.023438 65.601562 C 218 65.941406 217.367188 66.519531 217.109375 66.714844 C 216.355469 67.285156 215.683594 68.273438 214.976562 68.980469 C 214.28125 69.679688 213.183594 70.425781 212.746094 71.289062 C 214.484375 70.472656 216.136719 69.0625 217.683594 67.871094 C 219.488281 66.480469 221.386719 65.160156 223.242188 63.757812 C 225.710938 61.894531 228.238281 60.175781 230.6875 58.265625 C 231.207031 57.859375 231.703125 57.429688 232.234375 57.039062 C 232.742188 56.667969 233.375 56.058594 233.960938 55.859375 C 234.5625 55.65625 235.714844 55.117188 236.121094 55.847656 C 236.445312 56.441406 235.777344 57.511719 235.597656 58.015625 C 235.1875 59.152344 234.5625 60.175781 234.070312 61.21875 C 232.816406 63.882812 231.6875 66.121094 229.835938 68.371094 C 229.695312 68.898438 229.105469 69.242188 228.8125 69.695312 C 228.636719 69.972656 228.082031 70.609375 227.84375 70.84375 C 227.015625 71.667969 226.03125 72.425781 225.230469 73.222656 C 224.621094 73.832031 224.0625 74.480469 223.3125 74.933594 C 222.984375 75.128906 222.816406 75.679688 222.382812 75.691406 C 222.183594 75.859375 221.726562 76.289062 221.660156 76.542969 C 222.28125 76.332031 222.96875 76.066406 223.566406 75.6875 C 223.566406 75.730469 223.570312 75.777344 223.570312 75.820312 C 225.496094 74.886719 227.394531 73.933594 229.53125 73.332031 C 230.195312 73.144531 229.773438 73.128906 230.246094 73.085938 C 230.800781 73.03125 231.011719 73.113281 231.464844 73.222656 C 232.359375 73.445312 232.21875 74.035156 232.222656 74.796875 C 232.222656 75.570312 231.703125 76.597656 231.394531 77.4375 C 230.855469 78.894531 230.398438 80.382812 229.828125 81.832031 C 229.574219 82.476562 229.285156 83.109375 228.910156 83.691406 C 228.996094 83.96875 228.59375 84.589844 228.429688 84.804688 C 228.082031 85.265625 227.195312 86.148438 227.101562 86.550781 C 226.929688 87.003906 226.550781 87.527344 226.023438 87.589844 C 225.929688 87.9375 224.679688 88.878906 224.296875 88.964844 C 223.871094 89.222656 223.472656 89.515625 223.050781 89.769531 C 222.730469 89.964844 222.394531 90.332031 222.089844 90.457031 C 221.582031 90.667969 220.386719 91.078125 220.292969 91.539062 C 221.300781 91.597656 222.441406 91.265625 223.4375 91.0625 C 223.90625 90.96875 224.140625 90.792969 224.574219 90.796875 C 225.394531 90.808594 226.265625 90.578125 227.054688 90.808594 C 227.285156 90.875 227.957031 91.179688 228.21875 91.417969 C 228.800781 91.949219 228.703125 92.476562 228.671875 93.183594 C 228.621094 94.222656 228.117188 95.726562 227.75 96.921875 C 227.332031 98.273438 227.015625 99.648438 226.589844 100.996094 C 226.335938 101.792969 226.039062 102.578125 225.664062 103.324219 C 225.390625 103.863281 225.121094 104.742188 224.742188 105.191406 C 224.375 105.628906 224.050781 106.398438 223.523438 106.699219 C 223.371094 107.132812 222.714844 107.4375 222.398438 107.808594 C 223.492188 108.28125 224.746094 109.027344 225.125 110.207031 C 225.566406 111.578125 226.28125 113.117188 226.195312 114.554688 C 226.488281 114.714844 226.324219 116.261719 226.320312 116.703125 C 226.316406 117.046875 226.492188 118.128906 226.304688 118.347656 C 226.007812 118.695312 225.972656 120.039062 225.84375 120.601562 C 225.652344 121.429688 225.515625 122.097656 225.117188 122.8125 C 224.542969 123.847656 224.113281 124.3125 222.871094 124.820312 C 221.6875 125.710938 219.199219 125.191406 217.632812 125.21875 C 217.640625 125.605469 219.527344 126.375 219.949219 126.59375 C 220.347656 126.800781 220.53125 127.175781 220.890625 127.441406 C 221.320312 127.757812 221.878906 128.367188 222.054688 128.886719 C 222.308594 129.648438 222.429688 130.464844 222.527344 131.382812 C 222.542969 131.546875 222.78125 131.863281 222.789062 131.902344 C 222.90625 132.394531 222.828125 133.132812 222.792969 133.636719 C 222.660156 135.558594 222.117188 138.183594 220.984375 140.125 C 220.699219 140.613281 220.21875 141.089844 219.785156 141.445312 C 219.558594 141.632812 218.148438 141.816406 218.144531 141.988281 C 218.144531 142.148438 215.25 141.78125 214.855469 141.90625 C 215.046875 141.996094 215.167969 142.144531 215.214844 142.351562 C 215.570312 142.574219 215.898438 142.84375 216.1875 143.148438 C 216.601562 143.585938 216.878906 144.097656 217.308594 144.507812 C 217.667969 144.851562 217.976562 146.277344 217.902344 146.738281 C 218.136719 146.875 217.902344 149.859375 217.699219 149.851562 C 217.816406 149.855469 216.308594 154.136719 215.964844 154.578125 C 215.308594 155.160156 214.738281 156.074219 213.871094 156.367188 C 213.5 156.527344 212.671875 156.515625 212.078125 156.511719 C 211.457031 156.507812 211.0625 156.296875 210.386719 156.125 C 209.382812 155.871094 208.15625 154.917969 207.113281 154.992188 C 207.792969 155.886719 208.964844 156.398438 209.5625 157.398438 C 209.761719 157.730469 211.257812 159.816406 210.609375 160.242188 C 210.605469 160.59375 210.683594 160.5 210.71875 160.828125 C 210.773438 161.382812 210.640625 161.648438 210.621094 162.117188 C 210.609375 162.394531 210.21875 163.105469 210.101562 163.425781 C 209.875 164.019531 209.542969 164.671875 209.082031 165.128906 C 208.632812 165.578125 208.1875 165.945312 207.617188 166.28125 C 207.207031 166.523438 206.496094 166.96875 206.003906 166.929688 C 205.804688 167.007812 205.699219 167.21875 205.449219 167.21875 C 204.226562 167.21875 205.019531 167.339844 205.074219 168.222656 C 205.226562 170.730469 202.910156 172.429688 200.652344 173.144531 C 200.433594 173.214844 199.3125 173.277344 199.253906 173.410156 C 198.957031 173.664062 199.207031 174.609375 199.089844 174.964844 C 198.644531 176.328125 197.339844 177.003906 196.035156 177.414062 C 195.136719 177.695312 194.402344 177.792969 193.433594 177.847656 C 192.96875 178.222656 192.957031 178.777344 192.730469 179.265625 C 192.457031 179.84375 191.34375 180.460938 190.71875 180.523438 C 189.667969 181.1875 188.472656 181.175781 187.285156 181.144531 C 186.722656 181.132812 186.46875 181.015625 186.050781 180.941406 C 185.660156 180.871094 185.570312 181.1875 185.433594 181.511719 C 185.222656 182.011719 184.984375 182.195312 184.496094 182.410156 C 183.777344 182.730469 182.824219 183.03125 182.179688 183.035156 C 181.929688 183.039062 180.464844 183.109375 180.464844 182.972656 C 180.464844 182.847656 180.1875 182.910156 180.109375 182.910156 C 179.589844 182.898438 179.722656 183.328125 179.332031 183.644531 C 178.679688 184.171875 175.632812 184.828125 175.1875 184.140625 C 174.644531 184.292969 173.882812 184.007812 173.34375 183.859375 C 172.519531 183.628906 171.824219 183.976562 171.015625 184.023438 C 170.976562 184.296875 170.511719 184.167969 170.242188 184.167969 C 169.519531 184.160156 169.386719 184.085938 169.210938 184.773438 C 169.523438 185.203125 169.71875 185.980469 169.925781 186.492188 C 170.09375 186.910156 170.242188 186.832031 170.421875 187.179688 C 170.617188 187.550781 170.648438 188.015625 170.859375 188.4375 C 171.238281 189.199219 171.601562 189.96875 171.964844 190.738281 C 172.148438 191.125 172.332031 191.507812 172.519531 191.890625 C 172.695312 192.253906 173.035156 192.441406 173.113281 192.835938 C 173.234375 193.445312 173.472656 194.070312 173.730469 194.515625 C 173.972656 194.609375 174.089844 194.917969 174.128906 195.148438 C 174.191406 195.511719 174.464844 195.679688 174.511719 196.074219 C 174.601562 196.863281 175.101562 197.492188 175.402344 198.222656 C 175.53125 198.535156 175.503906 198.957031 175.640625 199.242188 C 175.816406 199.832031 176.6875 200.085938 176.511719 200.863281 C 176.632812 201.136719 176.894531 201.335938 177.074219 201.707031 C 177.496094 202.589844 177.746094 203.605469 178.285156 204.433594 C 178.757812 205.160156 179.230469 205.507812 179.839844 206.039062 C 180.390625 206.515625 180.644531 207.128906 181.179688 207.632812 C 181.769531 208.1875 182.253906 208.820312 182.824219 209.394531 C 184.21875 210.792969 185.546875 212.253906 186.894531 213.699219 C 188.980469 215.933594 191.09375 218.164062 193.289062 220.367188 C 194.125 221.207031 194.914062 222.003906 195.765625 222.867188 C 196.863281 223.972656 197.910156 224.871094 198.984375 225.949219 C 200 226.96875 201.03125 228.148438 202.035156 229.101562 C 202.980469 229.695312 203.410156 230.734375 204.28125 231.367188 C 204.839844 231.96875 206.410156 232.921875 206.21875 233.808594 C 204.921875 233.839844 204.289062 233.660156 203.0625 233.300781 C 202.277344 233.070312 201.347656 232.929688 200.601562 232.621094 C 200.046875 232.394531 199.375 232.269531 198.859375 231.890625 C 198.628906 231.960938 197.949219 231.554688 197.84375 231.367188 C 197.714844 231.148438 196.304688 230.273438 196.074219 230.28125 C 195.347656 230.308594 196.109375 231.332031 196.207031 231.324219 C 196.355469 231.3125 196.277344 232.039062 196.277344 232.199219 C 195.816406 232.28125 195.652344 232.054688 195.335938 231.765625 C 195.007812 231.953125 195.121094 232.6875 194.507812 232.347656 C 193.886719 232.003906 194.234375 231.9375 193.785156 232.167969 C 193.945312 232.753906 192.773438 232.015625 192.683594 232.023438 C 192.574219 232.164062 192.726562 232.554688 192.769531 232.707031 C 192.371094 232.699219 192.234375 232.660156 191.953125 232.40625 C 191.796875 232.261719 191.582031 231.769531 191.339844 232.164062 C 191.222656 232.355469 191.308594 232.65625 191.398438 232.839844 C 190.703125 232.792969 190.792969 232.410156 190.058594 232.757812 C 189.515625 233.011719 189.464844 232.292969 189.257812 232.277344 C 188.898438 232.242188 188.75 232.671875 188.722656 232.675781 C 187.671875 232.875 187.0625 231.128906 186.574219 230.480469 C 186.070312 229.8125 185.550781 229.15625 185.035156 228.496094 C 184.578125 227.90625 183.867188 227.289062 183.507812 226.671875 C 182.105469 224.269531 179.808594 222.078125 178.140625 219.738281 C 177.3125 218.585938 176.027344 217.53125 175.347656 216.320312 C 174.972656 215.648438 174.46875 215.558594 173.960938 215.097656 C 173.636719 215.09375 173.054688 214.871094 172.945312 214.695312 C 171.929688 214.859375 170.75 213.566406 169.757812 213.566406 C 169.179688 213.566406 168.621094 213.035156 168.089844 212.839844 C 167.796875 212.730469 167.460938 212.582031 167.285156 212.304688 C 167.039062 212.136719 166.726562 212.21875 166.511719 211.992188 C 166.246094 211.710938 165.773438 211.445312 165.386719 211.238281 C 165.023438 211.042969 164.066406 210.648438 163.902344 210.273438 C 163.578125 210.367188 163.058594 209.882812 162.757812 209.75 C 162.351562 209.574219 161.988281 209.085938 161.59375 208.996094 C 160.621094 208.78125 159.875 207.699219 158.902344 207.457031 C 158.402344 207.332031 157.710938 206.875 157.324219 206.523438 C 156.75 205.988281 156.394531 205.835938 155.980469 205.160156 C 155.566406 204.480469 155.238281 204.34375 154.648438 204.960938 C 154.148438 205.484375 153.671875 206.0625 153.03125 206.421875 C 152.808594 206.625 152.617188 206.976562 152.351562 207.148438 C 151.894531 207.441406 152.054688 207.425781 152.050781 207.992188 C 152.050781 208.21875 152.015625 208.472656 152.042969 208.699219 C 152.0625 208.894531 152.175781 209.734375 152.167969 210.136719 C 152.09375 210.488281 151.980469 210.589844 151.816406 211.019531 C 151.324219 212.304688 150.304688 212.597656 149.292969 213.265625 C 148.765625 213.613281 147.84375 213.769531 147.246094 213.847656 C 146.261719 213.996094 145.34375 214.242188 144.234375 214.386719 C 140.675781 214.851562 137.355469 215.160156 133.878906 215.214844 C 132.210938 215.242188 130.90625 215.40625 129.261719 215.332031 C 128.417969 215.296875 127.742188 215.40625 126.890625 215.398438 C 125.414062 215.609375 126.914062 216.617188 127.261719 217.238281 C 127.65625 217.941406 128.273438 218.332031 128.878906 218.914062 C 129.09375 219.117188 129.300781 219.332031 129.488281 219.5625 C 130.070312 220.273438 129.652344 219.632812 129.988281 219.910156 C 130.347656 220.210938 130.917969 220.625 131.144531 221.046875 C 132.003906 221.277344 131.910156 222.210938 131.972656 222.871094 C 132.027344 223.445312 132.125 223.996094 132.183594 224.558594 C 132.605469 224.808594 132.21875 225.757812 132.332031 226.152344 C 132.148438 226.171875 131.566406 227.195312 131.351562 227.410156 C 131.167969 227.59375 130.613281 228.046875 130.375 228.070312 C 130.085938 228.46875 129.574219 227.710938 130.082031 227.613281 C 130.507812 227.125 130.839844 226.382812 130.824219 225.75 C 130.808594 225.125 130.621094 225.019531 130.480469 224.4375 C 130.238281 223.453125 128.394531 223.851562 128.566406 222.492188 C 128.464844 222.390625 128.265625 221.828125 128.082031 221.515625 C 127.769531 220.984375 127.300781 220.664062 126.859375 220.242188 C 126.011719 219.429688 124.929688 217.914062 123.605469 217.972656 C 122.015625 218.046875 120.929688 219.074219 119.664062 219.984375 C 119.152344 220.351562 118.5625 220.992188 118.4375 221.574219 C 118.257812 222.394531 117.8125 222.65625 117.363281 223.175781 C 117.242188 223.316406 117.027344 223.386719 116.847656 223.363281 C 116.714844 223.636719 116.558594 223.898438 116.441406 224.179688 C 116.589844 225.167969 116.433594 225.824219 116.953125 226.75 C 117.320312 227.402344 117.476562 228.035156 116.53125 227.367188 C 115.9375 226.945312 115.453125 226.371094 115.1875 225.6875 C 114.984375 225.167969 114.839844 224.863281 114.792969 224.324219 C 114.769531 224.023438 114.390625 224.132812 114.167969 224.121094 C 113.785156 224.101562 113.761719 224.269531 113.5625 224.574219 C 113.660156 225.503906 113.519531 226.140625 114.074219 226.96875 C 114.390625 227.441406 114.621094 227.453125 114.757812 228.050781 C 114.207031 228.015625 113.183594 227.503906 112.816406 227.066406 C 112.320312 226.488281 112.183594 225.808594 111.976562 225.105469 C 111.457031 224.777344 112.164062 223.894531 112.207031 223.484375 C 111.875 223.25 112.078125 222.890625 112.277344 222.675781 C 112.625 222.300781 112.433594 222.132812 112.414062 221.640625 C 112.40625 221.363281 112.894531 220.625 113.042969 220.382812 C 113.21875 220.101562 114.035156 219.898438 114.339844 219.707031 C 114.910156 219.34375 115.445312 219.253906 115.976562 218.757812 C 116.738281 218.046875 116.863281 216.507812 116.867188 215.558594 C 116.871094 214.625 117.050781 213.476562 116.101562 213.058594 C 115.332031 212.71875 114.453125 212.425781 113.691406 212.738281 C 113.113281 212.976562 113.011719 213.773438 112.417969 214.0625 C 111.914062 214.878906 111.3125 215.628906 110.78125 216.425781 C 110.714844 216.539062 110.597656 216.890625 110.457031 217.0625 C 110.109375 217.476562 110.460938 218.167969 110.316406 218.730469 C 110.140625 219.417969 108.992188 219.933594 109.0625 220.871094 C 109.117188 221.574219 109 221.746094 109.425781 222.367188 C 109.5625 222.566406 110.554688 223.449219 110.546875 223.59375 C 110.691406 224.199219 107.574219 223.378906 107.574219 223.574219 C 107.574219 223.550781 107.027344 223.296875 106.976562 223.273438 C 106.324219 223.015625 105.84375 222.457031 105.550781 221.835938 C 105.085938 220.867188 105.25 220.015625 105.132812 218.96875 C 104.972656 217.53125 105.234375 216.976562 106.464844 216.101562 C 107.464844 215.382812 108.4375 214.0625 109.011719 212.984375 C 109.171875 212.683594 110.03125 211.941406 109.875 211.570312 C 109.675781 211.101562 108.339844 210.976562 107.921875 210.808594 C 106.304688 210.171875 104.601562 209.734375 102.992188 209.035156 C 102.429688 209 102.054688 208.773438 101.5625 208.550781 C 101.339844 208.550781 100.289062 208.226562 100.050781 208.105469 C 98.964844 207.566406 97.78125 207.085938 96.65625 206.492188 C 94.921875 205.578125 92.839844 204.015625 91.171875 202.695312 C 90.726562 202.339844 90.21875 202.027344 89.75 201.683594 C 89.371094 201.402344 88.386719 200.371094 87.960938 200.371094 C 87.703125 200.371094 86.953125 199.671875 86.792969 199.453125 C 86.496094 199.042969 85.859375 198.90625 85.546875 198.511719 C 85.257812 198.152344 84.902344 198.019531 84.523438 197.746094 C 84.269531 197.558594 84.363281 197.378906 84.160156 197.199219 C 83.933594 197.269531 83.710938 197.101562 83.59375 196.921875 C 83.339844 196.53125 82.820312 196.496094 82.683594 195.988281 C 82.328125 195.878906 81.367188 195.171875 81.179688 194.84375 C 80.933594 194.40625 80.484375 194.433594 80.195312 193.945312 C 79.867188 193.796875 79.03125 193.128906 78.957031 192.800781 C 78.480469 192.601562 78.175781 192.097656 77.851562 191.722656 C 77.257812 191.121094 76.617188 190.53125 76.003906 189.941406 C 74.023438 188.035156 72.789062 185.351562 71.085938 183.144531 C 70.34375 182.1875 69.984375 180.722656 69.578125 179.605469 C 69.039062 178.125 68.484375 176.65625 68.0625 175.207031 C 66.839844 170.992188 64.628906 167.085938 64.378906 162.597656 C 64.097656 161.039062 63.910156 158.375 62.5625 157.296875 C 62.101562 156.929688 62.070312 156.617188 61.476562 156.46875 C 60.792969 156.296875 60.128906 156.46875 59.4375 156.375 C 59.441406 156.375 59.242188 156.230469 59.011719 156.234375 C 58.648438 156.234375 58.28125 156.238281 57.917969 156.238281 C 57.929688 156.191406 57.941406 156.140625 57.957031 156.09375 C 57.703125 156.09375 56.910156 156.421875 56.8125 156.003906 C 56.042969 155.925781 55.300781 155.707031 54.550781 155.527344 C 53.382812 155.242188 52.226562 155.3125 51.140625 155.863281 C 50.449219 156.214844 49.722656 156.449219 49.238281 156.941406 C 49.023438 157.160156 48.808594 157.117188 48.609375 157.316406 C 48.519531 157.410156 47.914062 157.773438 47.796875 157.824219 C 47.53125 157.933594 44.566406 159.367188 44.566406 159.417969 C 44.578125 159.804688 41.894531 160.5625 41.449219 160.554688 C 41.363281 159.980469 41.769531 159.785156 41.925781 159.292969 C 42.300781 158.136719 42.53125 156.746094 43.238281 155.757812 C 43.003906 155.273438 41.53125 156.066406 41.011719 156.296875 C 40.570312 156.492188 37.773438 157.9375 38.902344 156.160156 C 38.988281 155.941406 38.804688 156.316406 38.902344 156.160156 Z M 38.90625 156.160156 " fill-opacity="1" fill-rule="nonzero"/></g></svg>