<svg xmlns="http://www.w3.org/2000/svg" xmlns:xlink="http://www.w3.org/1999/xlink" width="377" zoomAndPan="magnify" viewBox="0 0 283.5 283.500005" height="377" preserveAspectRatio="xMidYMid meet" version="1.0"><defs><clipPath id="1370d9f3bf"><path d="M 13 165 L 200 165 L 200 264 L 13 264 Z M 13 165 " clip-rule="nonzero"/></clipPath><clipPath id="fa9776017a"><path d="M 193.058594 266.355469 L 8.945312 178.511719 L 17.664062 160.234375 L 201.78125 248.082031 Z M 193.058594 266.355469 " clip-rule="nonzero"/></clipPath><clipPath id="cab4f4cfa0"><path d="M 193.058594 266.355469 L 8.945312 178.511719 L 17.664062 160.234375 L 201.78125 248.082031 Z M 193.058594 266.355469 " clip-rule="nonzero"/></clipPath><clipPath id="5824646d24"><path d="M 40 29 L 231.769531 29 L 231.769531 232.347656 L 40 232.347656 Z M 40 29 " clip-rule="nonzero"/></clipPath></defs><g clip-path="url(#1370d9f3bf)"><g clip-path="url(#fa9776017a)"><g clip-path="url(#cab4f4cfa0)"><path fill="#0084ff" d="M 13.285156 169.984375 C 13.140625 171.003906 13.753906 171.839844 14.445312 172.496094 C 14.664062 172.695312 14.867188 172.910156 15.070312 173.125 C 16.070312 174.316406 16.78125 175.734375 17.605469 177.046875 C 17.730469 177.25 17.851562 177.453125 17.964844 177.664062 C 17.988281 177.703125 18.003906 177.742188 18.027344 177.78125 C 18.074219 177.882812 18.128906 177.988281 18.171875 178.09375 C 18.382812 178.566406 18.570312 179.050781 18.738281 179.539062 C 19.078125 180.507812 19.371094 181.457031 19.925781 182.328125 C 21.132812 184.21875 23.234375 185.328125 25.476562 185.171875 C 26.453125 185.105469 27.472656 184.777344 28.273438 184.199219 C 29.167969 183.558594 29.742188 182.65625 30.015625 181.59375 C 30.246094 180.707031 30.164062 179.71875 29.910156 178.832031 C 30.535156 179.128906 31.15625 179.425781 31.777344 179.726562 C 32.003906 179.832031 32.234375 179.941406 32.460938 180.050781 C 32.648438 180.648438 33.074219 181.167969 33.535156 181.601562 C 33.753906 181.804688 33.960938 182.019531 34.160156 182.234375 C 35.164062 183.425781 35.871094 184.839844 36.695312 186.15625 C 36.820312 186.355469 36.941406 186.5625 37.058594 186.773438 C 37.078125 186.808594 37.097656 186.847656 37.117188 186.890625 C 37.167969 186.992188 37.21875 187.097656 37.261719 187.203125 C 37.472656 187.675781 37.660156 188.160156 37.832031 188.648438 C 38.167969 189.617188 38.460938 190.566406 39.019531 191.4375 C 40.222656 193.328125 42.324219 194.4375 44.566406 194.28125 C 45.542969 194.214844 46.5625 193.886719 47.363281 193.308594 C 48.261719 192.664062 48.832031 191.765625 49.105469 190.703125 C 49.335938 189.8125 49.253906 188.828125 49 187.941406 C 49.871094 188.355469 50.738281 188.769531 51.605469 189.183594 C 51.617188 189.191406 51.632812 189.195312 51.644531 189.203125 C 51.832031 189.800781 52.257812 190.320312 52.714844 190.753906 C 52.933594 190.957031 53.140625 191.171875 53.34375 191.386719 C 54.34375 192.578125 55.054688 193.992188 55.875 195.308594 C 56.003906 195.507812 56.125 195.714844 56.238281 195.925781 C 56.257812 195.960938 56.277344 196 56.300781 196.042969 C 56.347656 196.144531 56.398438 196.25 56.445312 196.355469 C 56.65625 196.828125 56.84375 197.3125 57.011719 197.800781 C 57.351562 198.769531 57.644531 199.71875 58.199219 200.589844 C 59.40625 202.480469 61.503906 203.589844 63.75 203.433594 C 64.726562 203.367188 65.746094 203.039062 66.546875 202.460938 C 67.441406 201.820312 68.015625 200.917969 68.289062 199.855469 C 68.519531 198.964844 68.433594 197.980469 68.183594 197.09375 C 75.84375 200.75 168.492188 244.953125 170.242188 245.789062 C 170.242188 245.796875 170.25 245.804688 170.25 245.8125 C 170.945312 248.789062 171.636719 251.757812 172.324219 254.730469 C 172.40625 255.089844 172.785156 255.449219 173.097656 255.597656 C 173.433594 255.757812 173.90625 255.796875 174.257812 255.652344 C 174.621094 255.503906 174.964844 255.242188 175.125 254.867188 C 175.292969 254.46875 175.285156 254.113281 175.191406 253.699219 C 174.707031 251.617188 174.222656 249.542969 173.742188 247.464844 C 175.554688 248.328125 177.367188 249.195312 179.183594 250.058594 C 179.183594 250.066406 179.1875 250.074219 179.1875 250.082031 C 179.882812 253.050781 180.570312 256.023438 181.261719 258.996094 C 181.34375 259.355469 181.722656 259.714844 182.035156 259.863281 C 182.371094 260.023438 182.84375 260.0625 183.195312 259.917969 C 183.558594 259.769531 183.902344 259.507812 184.0625 259.132812 C 184.230469 258.734375 184.222656 258.378906 184.128906 257.964844 C 183.644531 255.882812 183.164062 253.808594 182.679688 251.726562 C 184.234375 252.46875 185.789062 253.210938 187.339844 253.953125 C 187.339844 253.960938 187.347656 253.964844 187.347656 253.972656 C 188.035156 256.941406 188.726562 259.914062 189.417969 262.886719 C 189.496094 263.246094 189.878906 263.605469 190.191406 263.753906 C 190.527344 263.914062 191 263.953125 191.351562 263.808594 C 191.714844 263.660156 192.058594 263.398438 192.21875 263.023438 C 192.386719 262.625 192.378906 262.269531 192.28125 261.855469 C 191.800781 259.773438 191.316406 257.699219 190.835938 255.617188 C 191.074219 255.734375 191.316406 255.847656 191.554688 255.964844 C 192.726562 256.519531 193.890625 257.078125 195.058594 257.632812 C 196.820312 258.476562 198.140625 255.710938 196.378906 254.867188 C 195.101562 254.257812 193.824219 253.648438 192.546875 253.039062 C 194.371094 252.152344 196.203125 251.265625 198.027344 250.378906 C 198.40625 250.195312 198.707031 249.984375 198.894531 249.589844 C 199.058594 249.25 199.101562 248.773438 198.960938 248.421875 C 198.683594 247.71875 197.792969 247.128906 197.027344 247.5 C 194.371094 248.792969 191.710938 250.085938 189.050781 251.375 C 187.359375 250.570312 185.667969 249.761719 183.976562 248.953125 C 185.804688 248.070312 187.632812 247.179688 189.460938 246.292969 C 189.835938 246.109375 190.140625 245.898438 190.328125 245.507812 C 190.488281 245.164062 190.53125 244.6875 190.390625 244.335938 C 190.117188 243.636719 189.222656 243.042969 188.460938 243.414062 C 185.800781 244.707031 183.140625 246 180.480469 247.292969 C 178.742188 246.460938 177.007812 245.636719 175.273438 244.804688 C 177.097656 243.917969 178.929688 243.03125 180.753906 242.144531 C 181.132812 241.960938 181.433594 241.75 181.621094 241.355469 C 181.785156 241.015625 181.828125 240.539062 181.6875 240.1875 C 181.410156 239.488281 180.519531 238.894531 179.753906 239.265625 C 177.097656 240.558594 174.4375 241.851562 171.777344 243.140625 C 171.015625 242.777344 68.921875 194.066406 68.828125 194.019531 C 69.46875 193.78125 70.085938 193.449219 70.605469 193.003906 C 71.449219 192.277344 72.058594 191.34375 72.242188 190.222656 C 72.433594 189.101562 72.191406 188.003906 71.652344 187.023438 C 71.09375 186.023438 70.09375 185.25 69.0625 184.792969 C 67.945312 184.304688 66.71875 184.089844 65.5 184.136719 C 64.402344 184.183594 63.335938 184.519531 62.277344 184.796875 C 62.171875 184.824219 62.0625 184.851562 61.957031 184.878906 C 61.941406 184.882812 61.90625 184.894531 61.867188 184.902344 C 61.5625 184.964844 61.261719 185.027344 60.964844 185.105469 C 60.617188 185.195312 60.277344 185.300781 59.9375 185.421875 C 59.246094 185.664062 58.570312 185.953125 57.863281 186.15625 C 57.773438 186.179688 57.683594 186.203125 57.585938 186.226562 C 57.582031 186.230469 57.582031 186.230469 57.574219 186.230469 C 57.378906 186.269531 57.179688 186.304688 56.976562 186.324219 C 56.574219 186.371094 56.167969 186.386719 55.761719 186.378906 C 55.421875 186.359375 55.089844 186.324219 54.753906 186.28125 C 54.546875 186.253906 54.347656 186.238281 54.136719 186.265625 C 53.789062 186.304688 53.421875 186.378906 53.089844 186.515625 C 51.941406 185.964844 50.789062 185.414062 49.636719 184.867188 C 50.28125 184.625 50.898438 184.292969 51.414062 183.847656 C 52.257812 183.121094 52.867188 182.1875 53.054688 181.066406 C 53.246094 179.945312 53.003906 178.851562 52.460938 177.871094 C 51.90625 176.867188 50.90625 176.09375 49.871094 175.640625 C 48.757812 175.148438 47.53125 174.933594 46.3125 174.980469 C 45.214844 175.027344 44.148438 175.367188 43.089844 175.640625 C 42.980469 175.671875 42.875 175.695312 42.769531 175.722656 C 42.753906 175.730469 42.714844 175.738281 42.679688 175.746094 C 42.375 175.808594 42.074219 175.871094 41.773438 175.949219 C 41.429688 176.039062 41.085938 176.144531 40.75 176.265625 C 40.058594 176.507812 39.378906 176.796875 38.675781 177 C 38.585938 177.023438 38.492188 177.050781 38.398438 177.074219 C 38.394531 177.074219 38.390625 177.074219 38.386719 177.074219 C 38.1875 177.113281 37.992188 177.148438 37.789062 177.167969 C 37.386719 177.214844 36.980469 177.230469 36.574219 177.222656 C 36.234375 177.203125 35.902344 177.167969 35.566406 177.125 C 35.359375 177.101562 35.15625 177.082031 34.949219 177.109375 C 34.597656 177.152344 34.234375 177.222656 33.902344 177.359375 C 32.785156 176.824219 31.660156 176.289062 30.542969 175.753906 C 31.183594 175.515625 31.800781 175.183594 32.320312 174.738281 C 33.164062 174.007812 33.773438 173.078125 33.957031 171.953125 C 34.148438 170.832031 33.90625 169.738281 33.363281 168.757812 C 32.808594 167.757812 31.808594 166.984375 30.777344 166.527344 C 29.660156 166.039062 28.433594 165.820312 27.214844 165.867188 C 26.117188 165.914062 25.050781 166.253906 23.992188 166.53125 C 23.886719 166.558594 23.777344 166.585938 23.671875 166.613281 C 23.65625 166.617188 23.621094 166.625 23.582031 166.632812 C 23.277344 166.699219 22.976562 166.761719 22.679688 166.835938 C 22.332031 166.925781 21.992188 167.035156 21.652344 167.152344 C 20.960938 167.398438 20.28125 167.683594 19.578125 167.886719 C 19.488281 167.914062 19.394531 167.9375 19.300781 167.960938 C 19.296875 167.964844 19.296875 167.960938 19.289062 167.964844 C 19.09375 168 18.894531 168.035156 18.691406 168.058594 C 18.289062 168.105469 17.882812 168.121094 17.476562 168.113281 C 17.136719 168.089844 16.804688 168.058594 16.46875 168.015625 C 16.261719 167.988281 16.0625 167.972656 15.851562 167.996094 C 15.46875 168.042969 15.066406 168.125 14.710938 168.285156 C 13.996094 168.597656 13.40625 169.160156 13.285156 169.984375 Z M 13.285156 169.984375 " fill-opacity="1" fill-rule="nonzero"/></g></g></g><g clip-path="url(#5824646d24)"><path fill="#0084ff" d="M 40.445312 156.886719 C 40.726562 156.160156 40.984375 155.421875 41.304688 154.710938 C 41.476562 154.332031 41.667969 153.960938 41.890625 153.609375 C 42.09375 153.289062 42.019531 153.105469 42.195312 152.828125 C 42.367188 152.554688 42.484375 152.65625 42.710938 152.304688 C 42.929688 151.957031 43.167969 151.621094 43.417969 151.292969 C 43.660156 150.964844 43.914062 150.648438 44.167969 150.328125 C 44.433594 149.996094 44.492188 149.632812 44.738281 149.320312 C 45.367188 148.527344 46.132812 147.753906 46.101562 146.691406 C 46.058594 145.261719 46.277344 143.976562 46.558594 142.503906 C 47.195312 139.160156 48.324219 135.910156 50.007812 132.945312 C 50.726562 131.675781 51.539062 130.339844 52.542969 129.355469 C 52.976562 128.929688 53.25 128.394531 53.699219 127.957031 C 53.953125 127.707031 54.21875 127.597656 54.472656 127.335938 C 54.785156 127.019531 54.96875 126.554688 55.382812 126.347656 C 56.011719 126.03125 56.570312 125.664062 57 125.09375 C 57.226562 124.796875 58.042969 124.214844 58.414062 124.175781 C 58.570312 123.867188 59.328125 123.355469 59.65625 123.269531 C 60.058594 123.164062 60.648438 122.753906 61.074219 122.519531 C 61.964844 122.039062 62.925781 121.519531 63.933594 121.296875 C 65.121094 121.039062 66.234375 120.511719 67.46875 120.5 C 67.558594 120.316406 68.496094 120.230469 68.667969 120.230469 C 69.09375 120.230469 69.617188 120.113281 69.984375 120.113281 C 71.019531 120.113281 71.824219 119.828125 72.957031 119.773438 C 73.808594 119.730469 74.960938 119.785156 75.578125 119.898438 C 77.074219 120.394531 78.660156 120.84375 80.214844 121.28125 C 81.976562 121.777344 83.882812 122.140625 85.519531 122.988281 C 85.886719 123.175781 86.125 123.292969 86.375 123.585938 C 87 123.785156 87.207031 124.378906 87.785156 124.601562 C 88 124.390625 90.851562 126.839844 90.78125 127.21875 C 90.75 127.386719 91.386719 127.84375 91.5 128.003906 C 91.789062 128.417969 92.28125 128.734375 92.515625 129.132812 C 92.742188 129.523438 92.996094 129.597656 93.234375 129.976562 C 93.40625 130.253906 93.816406 130.5625 93.929688 130.820312 C 94.359375 131.816406 95.332031 132.789062 95.964844 133.726562 C 96.296875 134.21875 96.625 134.707031 96.980469 135.183594 C 97.59375 136.011719 97.507812 134.894531 98.054688 134.675781 C 97.96875 134.300781 98.390625 134.050781 98.519531 133.730469 C 98.726562 133.199219 99.070312 132.726562 99.457031 132.316406 C 99.992188 131.746094 99.515625 130.628906 99.519531 129.863281 C 99.308594 129.824219 99.257812 128.671875 99.246094 128.53125 C 99.160156 127.539062 99.277344 126.695312 99.472656 125.90625 C 99.675781 125.082031 100.003906 124.253906 100.210938 123.539062 C 100.511719 122.492188 101.234375 121.378906 100.941406 120.242188 C 101.214844 120.253906 101.109375 120.054688 101.0625 119.808594 C 100.960938 119.234375 101.269531 119.167969 101.203125 118.683594 C 101.140625 118.230469 101.265625 117.921875 101.265625 117.480469 C 101.265625 116.976562 101.523438 116.265625 101.613281 115.71875 C 101.839844 114.296875 102.179688 112.914062 102.433594 111.507812 C 102.667969 110.695312 103.007812 109.332031 103.550781 108.40625 C 104.265625 107.1875 104.554688 105.589844 105.019531 104.246094 C 105.410156 103.113281 105.730469 101.878906 106.117188 100.792969 C 106.496094 99.714844 106.921875 98.605469 107.292969 97.5 C 107.761719 96.09375 108.183594 94.640625 108.730469 93.253906 C 109.089844 92.347656 109.351562 91.273438 109.585938 90.328125 C 109.851562 89.261719 110.195312 88.179688 110.53125 87.144531 C 111.460938 84.285156 112.300781 81.402344 113.257812 78.542969 C 113.679688 77.28125 114.011719 75.953125 114.554688 74.734375 C 114.625 74.574219 114.78125 73.636719 115.0625 73.636719 C 115.5 73.636719 115.289062 74.574219 115.167969 74.726562 C 114.824219 75.148438 114.738281 76.058594 114.597656 76.609375 C 114.40625 77.34375 114.226562 78.078125 114.054688 78.820312 C 113.875 79.597656 113.722656 81.84375 113.246094 82.253906 C 112.304688 86.894531 111.257812 91.628906 110.777344 96.34375 C 110.746094 96.332031 110.71875 96.316406 110.691406 96.304688 C 110.59375 97.097656 110.503906 97.898438 110.261719 98.660156 C 110.605469 99.222656 111.3125 96.976562 111.386719 96.648438 C 111.628906 95.5 112.066406 94.402344 112.441406 93.292969 C 112.800781 92.226562 112.914062 91.078125 113.210938 89.980469 C 113.554688 88.703125 113.773438 87.464844 114.132812 86.113281 C 114.375 85.207031 114.613281 84.304688 114.867188 83.386719 C 114.796875 82.914062 115.109375 82.058594 115.542969 81.839844 C 115.550781 82.277344 115.628906 83.371094 115.207031 83.679688 C 115.167969 84.144531 114.945312 85.800781 114.71875 85.917969 C 114.441406 87.6875 114.128906 89.25 113.835938 90.925781 C 113.722656 91.566406 113.359375 95.792969 113.207031 95.800781 C 113.175781 96.511719 113.203125 97.003906 113.03125 97.695312 C 112.859375 98.398438 112.867188 98.910156 112.765625 99.675781 C 112.660156 100.480469 112.574219 101.214844 112.480469 101.980469 C 112.453125 102.210938 111.972656 104.386719 112.191406 104.386719 C 112.527344 104.386719 112.769531 103.210938 112.863281 102.964844 C 113.144531 102.21875 113.5625 101.601562 113.648438 100.742188 C 113.6875 100.34375 113.941406 99.921875 114.039062 99.503906 C 114.160156 98.992188 114.296875 98.488281 114.414062 97.976562 C 114.511719 97.554688 114.527344 95.777344 114.742188 95.71875 C 114.738281 95.539062 114.648438 94.367188 114.773438 94.367188 C 114.890625 94.367188 115.097656 93.121094 115.125 92.933594 C 115.1875 92.472656 115.03125 90.445312 115.792969 90.574219 C 115.757812 94.007812 114.894531 96.914062 115.015625 100.363281 C 115.027344 100.660156 114.816406 100.871094 114.816406 101.25 C 114.816406 101.703125 114.84375 102.152344 114.804688 102.605469 C 114.800781 103.0625 114.859375 103.535156 114.820312 103.988281 C 114.699219 105.300781 114.5625 106.6875 114.574219 108.132812 C 115.28125 107.816406 115.328125 106.335938 115.324219 105.65625 C 115.3125 104.695312 115.21875 103.625 115.328125 102.667969 C 115.386719 102.140625 115.394531 99.640625 116.15625 99.484375 C 116.460938 99.851562 116.285156 100.996094 116.285156 101.578125 C 116.285156 103.214844 116.28125 104.851562 116.285156 106.484375 C 116.285156 108.570312 116.050781 110.265625 116.164062 112.324219 C 116.605469 112.3125 116.25 110.46875 116.453125 110.035156 C 116.808594 109.90625 116.933594 110.269531 116.921875 110.585938 C 116.902344 110.976562 116.964844 111.429688 117.015625 111.847656 C 117.417969 112.042969 117.066406 113 117.101562 113.367188 C 117.179688 114.167969 117.296875 114.964844 117.421875 115.832031 C 117.503906 116.382812 117.773438 116.960938 117.574219 117.5 C 117.585938 117.625 117.699219 117.628906 117.75 117.746094 C 117.890625 118.070312 117.714844 118.476562 117.808594 118.832031 C 117.90625 119.214844 117.9375 119.609375 118.011719 120 C 118.234375 120.105469 118.496094 120.109375 118.683594 120.289062 C 118.976562 120.601562 119.035156 121.757812 119.128906 122.183594 C 119.550781 124.15625 119.925781 126.144531 120.582031 128.054688 C 121.277344 129.234375 121.65625 130.296875 122.101562 131.546875 C 122.550781 132.824219 123.316406 134.441406 123.476562 135.773438 C 124.300781 135.46875 124.46875 134.535156 125.101562 134.109375 C 125.804688 133.640625 125.75 133.042969 126.570312 132.722656 C 126.542969 132.695312 126.503906 132.671875 126.46875 132.621094 C 126.976562 131.632812 128.386719 130.714844 129.199219 129.878906 C 129.507812 129.5625 129.855469 129.449219 130.128906 129.207031 C 130.410156 128.957031 130.605469 128.570312 130.917969 128.289062 C 131.046875 128.167969 132.121094 127.015625 132.238281 127.191406 C 132.785156 126.777344 132.984375 126.199219 133.523438 125.855469 C 133.972656 125.566406 134.378906 125.070312 134.769531 124.699219 C 135.414062 124.089844 136.621094 123.664062 136.984375 122.828125 C 138.136719 120.160156 137.941406 117.265625 139.753906 114.808594 C 140.800781 113.746094 141.796875 112.410156 142.671875 111.285156 C 143.136719 110.6875 143.765625 110.25 144.25 109.675781 C 144.894531 108.914062 145.429688 108.039062 145.964844 107.203125 C 146.921875 105.703125 147.890625 104.214844 148.90625 102.753906 C 149.433594 101.992188 149.976562 101.238281 150.519531 100.484375 C 150.703125 100.226562 151.632812 98.621094 151.890625 98.660156 C 151.957031 98.671875 152.707031 97.464844 152.8125 97.328125 C 153.328125 96.648438 153.832031 95.960938 154.347656 95.285156 C 154.898438 94.5625 155.464844 93.855469 156.085938 93.191406 C 156.292969 92.917969 156.558594 92.480469 156.882812 92.1875 C 157.089844 91.214844 158.546875 90.394531 159.179688 89.6875 C 159.773438 89.03125 160.34375 88.359375 160.90625 87.679688 C 160.988281 87.363281 161.238281 87.015625 161.578125 86.953125 C 161.769531 86.738281 161.6875 86.519531 161.941406 86.300781 C 162.691406 85.648438 163.113281 84.871094 163.800781 84.207031 C 164.101562 83.914062 164.496094 83.578125 164.785156 83.242188 C 165.121094 82.855469 165.285156 82.3125 165.824219 82.046875 C 166.183594 81.5625 166.597656 80.890625 167.027344 80.464844 C 167.253906 80.238281 167.46875 80.15625 167.667969 79.902344 C 167.839844 79.679688 167.945312 79.40625 168.15625 79.210938 C 168.339844 79.039062 168.570312 78.980469 168.730469 78.796875 C 168.730469 78.316406 169.25 77.996094 169.617188 77.800781 C 169.804688 77.570312 169.78125 77.351562 169.976562 77.140625 C 170.226562 76.867188 170.539062 76.753906 170.800781 76.472656 C 170.816406 76.132812 171.480469 75.363281 171.789062 75.328125 C 171.78125 74.820312 172.496094 74.511719 172.703125 74.113281 C 172.835938 73.859375 173.074219 73.671875 173.308594 73.523438 C 173.589844 73.34375 173.546875 73.015625 173.851562 72.785156 C 174.550781 72.25 175.214844 71.371094 175.8125 70.6875 C 176.085938 70.371094 176.386719 70.070312 176.648438 69.761719 C 176.605469 69.484375 176.816406 69.277344 177.027344 69.140625 C 177.667969 68.734375 177.195312 68.984375 177.609375 68.417969 C 177.804688 68.15625 178.125 68.054688 178.355469 67.804688 C 178.335938 67.535156 178.53125 67.3125 178.726562 67.160156 C 178.945312 66.988281 179.253906 66.335938 179.546875 66.335938 C 180.09375 66.335938 179.835938 65.4375 180.480469 65.34375 C 180.855469 64.851562 181.207031 64.453125 181.496094 63.941406 C 181.675781 63.617188 181.925781 63.503906 182.113281 63.191406 C 182.304688 62.878906 182.527344 62.777344 182.710938 62.480469 C 182.9375 62.101562 183.492188 61.671875 183.789062 61.335938 C 184.453125 60.585938 185.261719 59.660156 185.75 58.824219 C 185.992188 58.40625 186.644531 57.867188 186.984375 57.527344 C 186.988281 57.144531 187.429688 56.957031 187.65625 56.703125 C 188.0625 56.175781 188.589844 55.671875 188.867188 55.105469 C 188.957031 54.917969 189.78125 54.03125 189.949219 53.992188 C 189.925781 53.722656 190.132812 53.503906 190.332031 53.367188 C 190.613281 53.175781 190.535156 52.957031 190.824219 52.75 C 191.316406 52.394531 191.78125 51.71875 192.035156 51.199219 C 192.226562 50.808594 192.679688 50.457031 192.914062 50.0625 C 193.070312 49.792969 193.253906 49.703125 193.402344 49.441406 C 193.511719 49.277344 193.65625 49.164062 193.84375 49.101562 C 193.867188 48.851562 193.984375 48.652344 194.191406 48.503906 C 194.667969 48.15625 194.730469 47.675781 195.140625 47.316406 C 195.585938 46.929688 195.816406 46.359375 196.210938 45.996094 C 196.949219 45.308594 197.367188 44.546875 198.058594 43.820312 C 198.257812 43.542969 198.574219 43.207031 198.863281 42.871094 C 199.167969 42.515625 199.261719 42.113281 199.695312 41.875 C 199.890625 41.523438 200.335938 40.851562 200.625 40.601562 C 201.777344 39.597656 202.640625 38.175781 203.621094 36.992188 C 204.4375 36.003906 205.179688 35.039062 205.964844 34.019531 C 206.464844 33.371094 210.226562 28.347656 210.96875 30.320312 C 210.84375 31.011719 210.796875 31.535156 210.597656 32.25 C 210.527344 32.5 210.234375 34.09375 210.042969 34.132812 C 209.886719 34.164062 209.535156 35.871094 209.453125 36.125 C 209.175781 36.957031 208.867188 37.777344 208.628906 38.625 C 207.921875 40.691406 206.75 42.832031 205.617188 44.824219 C 204.871094 46.132812 203.773438 47.425781 203.207031 48.800781 C 203.117188 49.019531 202.535156 50.09375 202.308594 50.101562 C 201.90625 50.886719 201.40625 51.621094 200.851562 52.304688 C 199.261719 55.09375 197.296875 57.890625 195.335938 60.425781 C 194.582031 61.402344 193.773438 62.386719 193.1875 63.445312 C 193.070312 63.652344 192.894531 63.871094 192.640625 63.898438 C 192.609375 64.167969 192.496094 64.417969 192.304688 64.613281 C 192.058594 64.859375 191.835938 65.167969 191.722656 65.511719 C 191.917969 65.503906 192.566406 64.683594 192.714844 64.539062 C 193.152344 64.105469 193.589844 63.667969 194.023438 63.234375 C 194.890625 62.367188 195.75 61.503906 196.613281 60.636719 C 197.746094 59.5 199.003906 58.425781 200.027344 57.269531 C 200.167969 56.835938 200.554688 56.515625 200.902344 56.25 C 201.171875 56.046875 201.289062 55.667969 201.644531 55.574219 C 201.617188 55.058594 202.558594 54.34375 202.980469 54.117188 C 202.984375 53.726562 203.355469 53.441406 203.648438 53.25 C 203.972656 53.039062 204.148438 52.667969 204.449219 52.40625 C 204.976562 51.945312 205.277344 51.433594 205.867188 50.992188 C 205.871094 51.027344 205.875 51.0625 205.878906 51.097656 C 206.285156 50.65625 206.398438 50.144531 206.945312 49.753906 C 206.953125 49.832031 206.960938 49.914062 206.96875 49.992188 C 207.621094 49.191406 207.992188 48.28125 208.859375 47.617188 C 209.085938 47.441406 209.199219 47.1875 209.445312 46.917969 C 209.664062 46.679688 209.890625 46.421875 210.199219 46.296875 C 210.355469 46.113281 210.308594 45.898438 210.488281 45.703125 C 210.859375 45.296875 211.300781 44.882812 211.710938 44.5 C 212.027344 44.207031 212.273438 43.863281 212.5 43.605469 C 212.898438 43.292969 213.5 42.808594 213.808594 42.429688 C 214.175781 41.972656 214.46875 41.265625 215.082031 41.050781 C 215.996094 39.910156 217.03125 38.804688 218.339844 38.117188 C 218.558594 38.003906 219.589844 37.449219 219.519531 38.199219 C 219.574219 38.28125 219.84375 39.070312 219.5 39.261719 C 219.203125 40.484375 218.652344 41.671875 218.191406 42.835938 C 217.546875 44.449219 217 46.113281 216.15625 47.632812 C 215.828125 48.226562 215.722656 48.742188 215.203125 49.253906 C 215.316406 49.691406 214.410156 50.628906 214.167969 51.011719 C 213.292969 52.402344 212.3125 53.789062 211.308594 55.089844 C 210.394531 56.277344 209.355469 57.535156 208.589844 58.78125 C 208.394531 59.101562 208.03125 59.355469 207.8125 59.644531 C 207.796875 59.871094 207.058594 60.804688 206.835938 60.851562 C 206.777344 61.265625 206.425781 61.441406 206.148438 61.746094 C 205.800781 62.125 205.351562 63.128906 204.867188 63.324219 C 204.613281 63.878906 204.113281 64.304688 203.738281 64.777344 C 203.375 65.230469 202.863281 65.816406 202.417969 66.316406 C 202.214844 66.542969 201.945312 66.6875 201.773438 66.933594 C 201.585938 67.199219 201.640625 67.441406 201.351562 67.664062 C 201.03125 67.90625 200.78125 68.589844 200.363281 68.65625 C 200.324219 69.058594 199.59375 69.6875 199.238281 69.886719 C 199.125 70.25 198.585938 70.816406 198.296875 71.042969 C 197.933594 71.332031 197.601562 71.761719 197.347656 72.148438 C 197.855469 72.074219 198.511719 71.304688 198.902344 71.007812 C 199.5 70.546875 200.226562 70.128906 200.664062 69.515625 C 200.773438 69.363281 201.539062 68.742188 201.707031 68.742188 C 202 68.742188 202.703125 67.800781 203.105469 67.660156 C 203.207031 67.300781 203.890625 66.953125 204.1875 66.710938 C 204.507812 66.453125 204.851562 66.210938 205.160156 65.941406 C 205.414062 65.46875 205.929688 65.285156 206.261719 64.863281 C 206.675781 64.339844 207.242188 64.15625 207.632812 63.609375 C 207.9375 63.1875 208.339844 63.179688 208.625 62.753906 C 208.8125 62.480469 209.105469 62.230469 209.4375 62.148438 C 209.519531 61.941406 209.703125 61.71875 209.933594 61.675781 C 210.074219 61.207031 210.558594 61.007812 210.957031 60.8125 C 211.246094 60.566406 211.429688 60.101562 211.804688 59.851562 C 212.363281 59.484375 212.652344 59.003906 213.144531 58.566406 C 213.589844 58.175781 214.019531 57.996094 214.347656 57.507812 C 214.699219 56.988281 215.316406 56.824219 215.660156 56.304688 C 215.824219 56.0625 216.101562 55.886719 216.371094 55.777344 C 216.546875 55.5 216.945312 55.089844 217.195312 54.867188 C 217.3125 54.765625 217.945312 54.210938 218.101562 54.210938 C 218.253906 53.792969 218.925781 53.308594 219.320312 53.144531 C 219.402344 52.6875 220.171875 52.636719 220.171875 52.371094 C 220.171875 52.015625 221.085938 51.347656 221.398438 51.304688 C 222.007812 50.175781 223.328125 49.609375 224.050781 48.648438 C 224.121094 48.550781 224.449219 48.164062 224.597656 48.421875 C 224.882812 48.1875 225.179688 47.964844 225.5 47.78125 C 225.730469 47.644531 226.203125 47.15625 226.355469 47.101562 C 228.871094 46.1875 226.054688 51.777344 225.777344 52.382812 C 225.253906 53.535156 224.667969 54.691406 224.285156 55.867188 C 224.070312 56.527344 223.652344 57.113281 223.347656 57.722656 C 223.15625 58.101562 222.65625 58.96875 222.304688 59.167969 C 222.007812 60.058594 221.0625 61.046875 220.457031 61.769531 C 220.191406 62.089844 219.996094 62.367188 219.789062 62.707031 C 219.6875 62.875 219.539062 62.988281 219.351562 63.046875 C 219.382812 63.328125 219.152344 63.511719 218.960938 63.664062 C 218.308594 64.167969 218.039062 65.230469 217.289062 65.632812 C 217.25 65.820312 216.863281 66.210938 216.683594 66.261719 C 216.679688 66.59375 216.195312 66.964844 215.980469 67.152344 C 215.535156 67.542969 215.105469 68.066406 214.710938 68.554688 C 214.53125 68.777344 214.292969 68.71875 214.144531 68.917969 C 214.125 69.246094 213.511719 69.808594 213.261719 70 C 212.527344 70.550781 211.878906 71.511719 211.195312 72.199219 C 210.519531 72.878906 209.453125 73.605469 209.03125 74.441406 C 210.714844 73.648438 212.320312 72.277344 213.816406 71.121094 C 215.570312 69.769531 217.40625 68.484375 219.207031 67.125 C 221.601562 65.316406 224.050781 63.648438 226.425781 61.789062 C 226.929688 61.398438 227.414062 60.976562 227.929688 60.597656 C 228.421875 60.238281 229.03125 59.644531 229.605469 59.453125 C 230.1875 59.253906 231.300781 58.730469 231.695312 59.445312 C 232.011719 60.019531 231.363281 61.058594 231.1875 61.546875 C 230.792969 62.652344 230.1875 63.644531 229.710938 64.65625 C 228.492188 67.246094 227.398438 69.421875 225.601562 71.605469 C 225.464844 72.117188 224.894531 72.453125 224.609375 72.894531 C 224.441406 73.160156 223.902344 73.78125 223.671875 74.007812 C 222.867188 74.8125 221.910156 75.546875 221.136719 76.320312 C 220.546875 76.910156 220 77.539062 219.273438 77.980469 C 218.960938 78.171875 218.796875 78.707031 218.375 78.71875 C 218.179688 78.878906 217.738281 79.300781 217.671875 79.546875 C 218.277344 79.339844 218.945312 79.082031 219.523438 78.714844 C 219.523438 78.757812 219.523438 78.800781 219.527344 78.84375 C 221.394531 77.9375 223.234375 77.011719 225.308594 76.425781 C 225.949219 76.246094 225.542969 76.230469 226 76.1875 C 226.539062 76.136719 226.746094 76.210938 227.179688 76.320312 C 228.050781 76.535156 227.914062 77.109375 227.914062 77.847656 C 227.917969 78.601562 227.414062 79.597656 227.113281 80.414062 C 226.589844 81.832031 226.148438 83.277344 225.597656 84.683594 C 225.351562 85.308594 225.070312 85.921875 224.703125 86.488281 C 224.789062 86.757812 224.398438 87.363281 224.238281 87.570312 C 223.902344 88.019531 223.039062 88.878906 222.953125 89.265625 C 222.78125 89.710938 222.417969 90.21875 221.90625 90.273438 C 221.816406 90.613281 220.601562 91.53125 220.230469 91.613281 C 219.820312 91.863281 219.433594 92.148438 219.019531 92.394531 C 218.710938 92.585938 218.386719 92.941406 218.089844 93.0625 C 217.597656 93.265625 216.4375 93.664062 216.351562 94.113281 C 217.328125 94.167969 218.433594 93.847656 219.398438 93.648438 C 219.851562 93.558594 220.082031 93.386719 220.5 93.390625 C 221.296875 93.402344 222.136719 93.179688 222.90625 93.402344 C 223.128906 93.46875 223.78125 93.761719 224.035156 93.996094 C 224.597656 94.511719 224.503906 95.027344 224.472656 95.710938 C 224.425781 96.722656 223.9375 98.179688 223.578125 99.34375 C 223.175781 100.652344 222.867188 101.992188 222.453125 103.300781 C 222.207031 104.074219 221.921875 104.835938 221.554688 105.5625 C 221.292969 106.085938 221.03125 106.9375 220.664062 107.375 C 220.304688 107.800781 219.992188 108.550781 219.480469 108.839844 C 219.332031 109.261719 218.695312 109.558594 218.390625 109.917969 C 219.453125 110.378906 220.664062 111.101562 221.035156 112.25 C 221.460938 113.578125 222.152344 115.074219 222.074219 116.472656 C 222.359375 116.625 222.195312 118.128906 222.191406 118.558594 C 222.191406 118.894531 222.359375 119.945312 222.175781 120.15625 C 221.890625 120.492188 221.855469 121.800781 221.730469 122.34375 C 221.546875 123.152344 221.410156 123.796875 221.023438 124.492188 C 220.46875 125.5 220.054688 125.949219 218.847656 126.441406 C 217.703125 127.308594 215.289062 126.804688 213.769531 126.828125 C 213.773438 127.207031 215.605469 127.953125 216.015625 128.167969 C 216.402344 128.367188 216.582031 128.730469 216.929688 128.988281 C 217.34375 129.296875 217.886719 129.886719 218.054688 130.394531 C 218.300781 131.132812 218.417969 131.925781 218.511719 132.816406 C 218.53125 132.976562 218.757812 133.285156 218.769531 133.320312 C 218.882812 133.800781 218.808594 134.515625 218.773438 135.007812 C 218.644531 136.875 218.117188 139.425781 217.019531 141.308594 C 216.742188 141.785156 216.273438 142.246094 215.855469 142.59375 C 215.636719 142.777344 214.265625 142.957031 214.265625 143.121094 C 214.261719 143.277344 211.457031 142.921875 211.074219 143.039062 C 211.261719 143.128906 211.378906 143.273438 211.425781 143.472656 C 211.769531 143.691406 212.085938 143.953125 212.363281 144.246094 C 212.769531 144.671875 213.039062 145.167969 213.453125 145.566406 C 213.800781 145.902344 214.101562 147.285156 214.03125 147.734375 C 214.257812 147.867188 214.03125 150.765625 213.832031 150.761719 C 213.945312 150.765625 212.484375 154.921875 212.152344 155.351562 C 211.511719 155.917969 210.960938 156.804688 210.117188 157.089844 C 209.761719 157.242188 208.957031 157.234375 208.382812 157.230469 C 207.777344 157.226562 207.398438 157.023438 206.742188 156.855469 C 205.769531 156.609375 204.582031 155.679688 203.566406 155.753906 C 204.222656 156.621094 205.363281 157.121094 205.941406 158.089844 C 206.136719 158.414062 207.585938 160.4375 206.957031 160.851562 C 206.953125 161.195312 207.03125 161.101562 207.0625 161.421875 C 207.113281 161.960938 206.988281 162.21875 206.96875 162.675781 C 206.957031 162.945312 206.582031 163.632812 206.464844 163.945312 C 206.246094 164.523438 205.921875 165.15625 205.476562 165.601562 C 205.039062 166.039062 204.609375 166.394531 204.054688 166.71875 C 203.65625 166.953125 202.96875 167.386719 202.492188 167.351562 C 202.296875 167.425781 202.195312 167.628906 201.953125 167.628906 C 200.765625 167.628906 201.535156 167.746094 201.589844 168.605469 C 201.738281 171.042969 199.492188 172.695312 197.304688 173.386719 C 197.089844 173.457031 196 173.515625 195.945312 173.648438 C 195.660156 173.894531 195.902344 174.808594 195.789062 175.15625 C 195.355469 176.480469 194.089844 177.136719 192.824219 177.535156 C 191.953125 177.808594 191.238281 177.902344 190.300781 177.953125 C 189.851562 178.320312 189.839844 178.859375 189.617188 179.332031 C 189.351562 179.894531 188.273438 180.492188 187.667969 180.554688 C 186.652344 181.199219 185.492188 181.1875 184.335938 181.160156 C 183.792969 181.148438 183.546875 181.03125 183.140625 180.960938 C 182.761719 180.890625 182.675781 181.199219 182.542969 181.515625 C 182.339844 182 182.105469 182.179688 181.632812 182.390625 C 180.9375 182.695312 180.011719 182.988281 179.390625 182.996094 C 179.148438 182.996094 177.726562 183.066406 177.726562 182.933594 C 177.726562 182.8125 177.457031 182.875 177.378906 182.875 C 176.875 182.863281 177.003906 183.28125 176.625 183.585938 C 175.992188 184.101562 173.039062 184.734375 172.605469 184.066406 C 172.078125 184.21875 171.34375 183.9375 170.820312 183.792969 C 170.019531 183.574219 169.34375 183.910156 168.5625 183.957031 C 168.523438 184.222656 168.070312 184.09375 167.808594 184.09375 C 167.109375 184.089844 166.980469 184.015625 166.808594 184.683594 C 167.113281 185.101562 167.304688 185.859375 167.503906 186.351562 C 167.667969 186.757812 167.808594 186.683594 167.984375 187.019531 C 168.175781 187.382812 168.203125 187.832031 168.410156 188.242188 C 168.777344 188.980469 169.128906 189.730469 169.480469 190.480469 C 169.660156 190.851562 169.835938 191.226562 170.019531 191.597656 C 170.191406 191.949219 170.519531 192.132812 170.59375 192.515625 C 170.714844 193.109375 170.941406 193.714844 171.191406 194.148438 C 171.425781 194.238281 171.542969 194.539062 171.582031 194.761719 C 171.640625 195.113281 171.90625 195.28125 171.949219 195.664062 C 172.039062 196.429688 172.523438 197.039062 172.816406 197.746094 C 172.941406 198.050781 172.914062 198.460938 173.046875 198.738281 C 173.214844 199.3125 174.0625 199.558594 173.890625 200.3125 C 174.007812 200.578125 174.261719 200.773438 174.433594 201.132812 C 174.84375 201.992188 175.085938 202.976562 175.609375 203.78125 C 176.070312 204.488281 176.527344 204.828125 177.117188 205.339844 C 177.65625 205.804688 177.898438 206.398438 178.417969 206.890625 C 178.988281 207.429688 179.457031 208.042969 180.011719 208.601562 C 181.363281 209.957031 182.652344 211.378906 183.957031 212.78125 C 185.980469 214.953125 188.03125 217.117188 190.160156 219.261719 C 190.972656 220.078125 191.738281 220.851562 192.5625 221.6875 C 193.628906 222.765625 194.644531 223.636719 195.683594 224.683594 C 196.667969 225.671875 197.667969 226.820312 198.644531 227.746094 C 199.558594 228.324219 199.976562 229.332031 200.820312 229.949219 C 201.363281 230.53125 202.886719 231.457031 202.699219 232.320312 C 201.441406 232.347656 200.828125 232.175781 199.640625 231.824219 C 198.878906 231.601562 197.972656 231.464844 197.253906 231.164062 C 196.714844 230.941406 196.0625 230.824219 195.5625 230.453125 C 195.339844 230.523438 194.679688 230.125 194.574219 229.949219 C 194.453125 229.734375 193.082031 228.882812 192.859375 228.890625 C 192.160156 228.917969 192.898438 229.910156 192.992188 229.90625 C 193.136719 229.894531 193.058594 230.597656 193.058594 230.753906 C 192.613281 230.832031 192.453125 230.613281 192.144531 230.332031 C 191.828125 230.515625 191.9375 231.230469 191.34375 230.898438 C 190.742188 230.5625 191.078125 230.5 190.640625 230.722656 C 190.796875 231.292969 189.660156 230.574219 189.574219 230.585938 C 189.464844 230.722656 189.617188 231.101562 189.65625 231.246094 C 189.269531 231.238281 189.136719 231.203125 188.867188 230.953125 C 188.710938 230.816406 188.503906 230.335938 188.269531 230.722656 C 188.160156 230.90625 188.238281 231.199219 188.328125 231.378906 C 187.652344 231.332031 187.742188 230.960938 187.03125 231.296875 C 186.503906 231.542969 186.453125 230.847656 186.253906 230.828125 C 185.902344 230.796875 185.757812 231.210938 185.734375 231.214844 C 184.714844 231.414062 184.125 229.714844 183.648438 229.085938 C 183.160156 228.433594 182.65625 227.800781 182.160156 227.15625 C 181.714844 226.582031 181.023438 225.984375 180.675781 225.382812 C 179.316406 223.050781 177.089844 220.921875 175.46875 218.652344 C 174.667969 217.527344 173.421875 216.507812 172.761719 215.328125 C 172.398438 214.675781 171.910156 214.589844 171.417969 214.140625 C 171.105469 214.136719 170.539062 213.921875 170.429688 213.75 C 169.445312 213.910156 168.304688 212.652344 167.34375 212.652344 C 166.78125 212.652344 166.238281 212.136719 165.722656 211.945312 C 165.4375 211.839844 165.117188 211.699219 164.945312 211.429688 C 164.707031 211.265625 164.402344 211.34375 164.195312 211.125 C 163.933594 210.851562 163.476562 210.59375 163.101562 210.390625 C 162.75 210.199219 161.820312 209.820312 161.664062 209.457031 C 161.351562 209.546875 160.847656 209.074219 160.554688 208.949219 C 160.15625 208.773438 159.808594 208.300781 159.421875 208.214844 C 158.480469 208.007812 157.757812 206.957031 156.816406 206.71875 C 156.332031 206.597656 155.65625 206.15625 155.285156 205.808594 C 154.730469 205.292969 154.382812 205.144531 153.980469 204.488281 C 153.582031 203.828125 153.261719 203.695312 152.691406 204.292969 C 152.203125 204.804688 151.742188 205.363281 151.121094 205.710938 C 150.902344 205.910156 150.71875 206.25 150.460938 206.417969 C 150.019531 206.703125 150.171875 206.6875 150.171875 207.242188 C 150.171875 207.457031 150.136719 207.707031 150.160156 207.925781 C 150.179688 208.117188 150.289062 208.929688 150.28125 209.324219 C 150.210938 209.660156 150.101562 209.761719 149.941406 210.179688 C 149.464844 211.429688 148.476562 211.714844 147.496094 212.359375 C 146.984375 212.699219 146.089844 212.851562 145.507812 212.929688 C 144.558594 213.074219 143.667969 213.308594 142.589844 213.453125 C 139.140625 213.902344 135.917969 214.203125 132.550781 214.257812 C 130.929688 214.28125 129.664062 214.441406 128.070312 214.371094 C 127.25 214.332031 126.59375 214.441406 125.769531 214.433594 C 124.335938 214.636719 125.792969 215.617188 126.128906 216.21875 C 126.515625 216.90625 127.113281 217.28125 127.699219 217.847656 C 127.910156 218.046875 128.105469 218.257812 128.292969 218.476562 C 128.855469 219.171875 128.449219 218.546875 128.773438 218.816406 C 129.125 219.105469 129.679688 219.507812 129.894531 219.917969 C 130.730469 220.144531 130.640625 221.050781 130.699219 221.691406 C 130.753906 222.25 130.847656 222.785156 130.902344 223.332031 C 131.3125 223.574219 130.9375 224.496094 131.046875 224.882812 C 130.867188 224.902344 130.304688 225.894531 130.097656 226.105469 C 129.917969 226.28125 129.382812 226.722656 129.148438 226.742188 C 128.867188 227.128906 128.371094 226.394531 128.867188 226.296875 C 129.277344 225.828125 129.601562 225.101562 129.585938 224.492188 C 129.570312 223.882812 129.390625 223.78125 129.25 223.214844 C 129.015625 222.257812 127.230469 222.644531 127.394531 221.324219 C 127.296875 221.226562 127.105469 220.679688 126.925781 220.375 C 126.621094 219.863281 126.167969 219.546875 125.738281 219.136719 C 124.917969 218.347656 123.867188 216.878906 122.585938 216.933594 C 121.042969 217.003906 119.992188 218.003906 118.761719 218.890625 C 118.269531 219.246094 117.695312 219.867188 117.570312 220.429688 C 117.398438 221.230469 116.96875 221.484375 116.53125 221.988281 C 116.414062 222.125 116.203125 222.195312 116.03125 222.171875 C 115.902344 222.4375 115.753906 222.691406 115.636719 222.964844 C 115.78125 223.921875 115.628906 224.5625 116.132812 225.460938 C 116.492188 226.09375 116.640625 226.707031 115.722656 226.058594 C 115.148438 225.652344 114.679688 225.089844 114.421875 224.429688 C 114.226562 223.925781 114.082031 223.628906 114.039062 223.105469 C 114.015625 222.8125 113.648438 222.917969 113.433594 222.90625 C 113.0625 222.886719 113.039062 223.050781 112.84375 223.347656 C 112.941406 224.253906 112.804688 224.867188 113.34375 225.671875 C 113.648438 226.132812 113.871094 226.140625 114.003906 226.726562 C 113.472656 226.6875 112.480469 226.191406 112.121094 225.769531 C 111.644531 225.207031 111.507812 224.546875 111.304688 223.863281 C 110.804688 223.542969 111.488281 222.683594 111.53125 222.289062 C 111.207031 222.0625 111.40625 221.714844 111.601562 221.503906 C 111.9375 221.136719 111.75 220.976562 111.734375 220.496094 C 111.722656 220.230469 112.195312 219.511719 112.34375 219.273438 C 112.511719 219.003906 113.304688 218.804688 113.597656 218.621094 C 114.152344 218.265625 114.671875 218.179688 115.1875 217.699219 C 115.925781 217.007812 116.046875 215.511719 116.050781 214.589844 C 116.054688 213.679688 116.230469 212.566406 115.308594 212.160156 C 114.558594 211.828125 113.710938 211.542969 112.972656 211.847656 C 112.410156 212.082031 112.3125 212.855469 111.738281 213.136719 C 111.246094 213.929688 110.664062 214.660156 110.148438 215.433594 C 110.082031 215.542969 109.96875 215.882812 109.832031 216.050781 C 109.496094 216.453125 109.839844 217.125 109.699219 217.671875 C 109.527344 218.339844 108.414062 218.839844 108.484375 219.75 C 108.535156 220.433594 108.421875 220.597656 108.832031 221.203125 C 108.964844 221.398438 109.929688 222.253906 109.917969 222.394531 C 110.0625 222.984375 107.039062 222.1875 107.039062 222.375 C 107.039062 222.355469 106.511719 222.105469 106.457031 222.085938 C 105.828125 221.835938 105.363281 221.289062 105.074219 220.6875 C 104.625 219.746094 104.78125 218.917969 104.671875 217.902344 C 104.515625 216.503906 104.769531 215.964844 105.960938 215.113281 C 106.933594 214.417969 107.875 213.132812 108.429688 212.085938 C 108.585938 211.796875 109.421875 211.078125 109.269531 210.714844 C 109.074219 210.261719 107.78125 210.136719 107.375 209.976562 C 105.804688 209.355469 104.15625 208.929688 102.597656 208.25 C 102.050781 208.214844 101.683594 208 101.210938 207.785156 C 100.992188 207.785156 99.972656 207.464844 99.746094 207.351562 C 98.691406 206.824219 97.542969 206.359375 96.453125 205.78125 C 94.765625 204.894531 92.75 203.375 91.132812 202.09375 C 90.699219 201.75 90.207031 201.445312 89.753906 201.113281 C 89.386719 200.839844 88.429688 199.835938 88.015625 199.835938 C 87.769531 199.835938 87.039062 199.15625 86.886719 198.945312 C 86.597656 198.546875 85.980469 198.414062 85.675781 198.03125 C 85.394531 197.679688 85.054688 197.550781 84.6875 197.285156 C 84.441406 197.105469 84.527344 196.929688 84.332031 196.753906 C 84.113281 196.820312 83.898438 196.660156 83.78125 196.484375 C 83.535156 196.105469 83.035156 196.070312 82.902344 195.578125 C 82.554688 195.472656 81.625 194.785156 81.441406 194.464844 C 81.203125 194.042969 80.769531 194.070312 80.484375 193.59375 C 80.171875 193.449219 79.359375 192.800781 79.285156 192.480469 C 78.824219 192.289062 78.527344 191.796875 78.214844 191.433594 C 77.636719 190.851562 77.015625 190.277344 76.425781 189.707031 C 74.503906 187.851562 73.304688 185.242188 71.652344 183.101562 C 70.933594 182.171875 70.585938 180.75 70.191406 179.664062 C 69.667969 178.226562 69.132812 176.796875 68.722656 175.390625 C 67.535156 171.296875 65.394531 167.5 65.148438 163.140625 C 64.875 161.628906 64.695312 159.042969 63.390625 157.992188 C 62.941406 157.632812 62.910156 157.332031 62.332031 157.1875 C 61.671875 157.019531 61.03125 157.1875 60.355469 157.097656 C 60.363281 157.097656 60.167969 156.957031 59.945312 156.957031 C 59.589844 156.960938 59.238281 156.964844 58.882812 156.964844 C 58.894531 156.917969 58.90625 156.871094 58.921875 156.820312 C 58.675781 156.824219 57.90625 157.140625 57.8125 156.738281 C 57.066406 156.660156 56.34375 156.449219 55.621094 156.273438 C 54.484375 155.996094 53.367188 156.0625 52.3125 156.601562 C 51.640625 156.941406 50.9375 157.167969 50.46875 157.648438 C 50.261719 157.859375 50.050781 157.816406 49.859375 158.011719 C 49.769531 158.101562 49.183594 158.453125 49.070312 158.503906 C 48.8125 158.609375 45.933594 160.003906 45.9375 160.050781 C 45.949219 160.429688 43.347656 161.164062 42.914062 161.15625 C 42.832031 160.597656 43.226562 160.40625 43.378906 159.933594 C 43.738281 158.808594 43.964844 157.457031 44.648438 156.496094 C 44.421875 156.023438 42.992188 156.796875 42.492188 157.019531 C 42.0625 157.207031 39.351562 158.613281 40.445312 156.886719 C 40.527344 156.675781 40.347656 157.039062 40.445312 156.886719 Z M 40.445312 156.886719 " fill-opacity="1" fill-rule="nonzero"/></g></svg>